<?xml version="1.0" encoding="UTF-8"?><svg id="Layer_8" xmlns="http://www.w3.org/2000/svg" viewBox="0 0 1061 1061"><defs><style>.cls-1{fill:#adcdd8;}</style></defs><path class="cls-1" d="M644.32,524.17c0,98.24,.15,196.48-.19,294.72-.04,12.64-2.45,25.3-4.17,37.9-1.5,10.99-3.46,21.9-6.51,32.61-3.17,11.13-9.08,20.87-14.61,30.85-5.58,10.08-12.55,19.1-21,26.87-15.05,13.84-32.73,22.22-53.08,25.02-19.5,2.68-38.45,.88-56.45-7.13-9.35-4.17-17.75-10.16-25.45-17.01-13.83-12.32-22.72-27.7-29.32-44.9-9.78-25.5-13.01-51.8-13.22-78.92-.18-23.6-1.05-47.22-.53-70.81,.45-20.51,.7-41.02,.71-61.53,.03-62.22-.09-124.44,.17-186.66,.04-9.18,.33-18.43,.59-27.62,.31-11.46,1.3-23.02-.25-34.6-.53-3.99,.7-8.52,.59-12.82-1.77-66-.95-132.01-.78-198.01,.06-21.05,1.81-42.08,7.61-62.53,5.02-17.68,13.53-33.38,25.71-47.21,13.59-15.42,29.95-26.07,50.13-30.52,16.2-3.57,32.33-1.88,48.43,.87,17.73,3.03,33.64,10.26,47.18,21.98,16.56,14.33,27.31,32.58,34.13,53.33,4.84,14.72,7.02,29.78,8.54,45.17,3.74,38.03,1.34,76.1,1.65,114.15,.53,65.6,.15,131.21,.15,196.81h-.03Zm-109.07,184.26c8.06-.52,15.99,.19,23.97-.96,13.16-1.9,26.51-3.07,38.84-8.31,10.53-4.47,21.44-8.56,29.11-17.96,3.81-4.67,4.02-6.05,.16-10.42-1.63-1.85-4.58-3.71-3-6.63,1.16-2.14,1.05-4.13,1.04-6.23-.06-41.81,.22-83.62-.93-125.43-.56-20.24-.06-40.5-.05-60.75,.01-18.65,.04-37.29-.02-55.94,0-2.73,.82-4.81,2.3-7.25,6.27-10.33,6.59-16.06-1.95-23.01-2.73-2.23-6.62-2.22-9.23-4.77-3.82-3.73-8.77-4.76-13.73-4.54-2.7,.12-5.06-.33-7.09-1.57-9.81-6.01-21.07-5.31-31.69-5.98-3.98-.25-8.48-.17-12.74-.26-1.4-.03-2.39-1.91-4.12-.86-4.65,2.84-9.95-3.08-14.57,1.02-.18,.16-1.22-.17-1.29-.43-.68-2.55-2.79-1.59-4.14-1.43-6.78,.78-13.58,.27-20.4,.79-15.26,1.15-30.15,2.79-44.91,7.46-7.02,2.22-13.57,4.63-19.83,8.37-10.27,6.14-12.19,13.61-5.62,23.52,.92,1.39,2.33,2.73,2.05,4.42-1.66,9.93,0,19.84-.11,29.73-.26,22.21,1.46,44.35,1.39,66.55-.04,13.07-.58,26.13,.9,39.3,1.07,9.52-.07,19.44-.06,29.19,.02,27.8-.04,55.6,.04,83.4,.01,3.44-.68,6.49-2.28,9.51-2.8,5.29-1.75,11.08,2.27,15.53,7.35,8.14,16.75,12.83,27.01,15.83,22.45,6.56,45.54,7.98,68.65,8.1Zm18.33-362.76c2.7-.01,3.97-1.17,3.95-3.59-.02-2.51-1.45-3.4-3.79-3.4-2.49,0-3.71,1.62-3.81,3.65-.12,2.4,1.78,3.23,3.65,3.33Zm-.28-61.07c1.54-.87,4.39-.29,4.02-3.31-.27-2.23-1.79-3.59-4.11-3.45-2.17,.12-3.87,1.05-3.74,3.65,.12,2.39,1.89,2.81,3.82,3.12Zm-42.7-5.33c.14-1.92-2.21-1.58-3.86-1.87-2.34-.41-3.46,1.16-3.54,3.15-.11,2.63,1.79,3.2,4.02,3.13,2.24-.07,3.3-1.27,3.38-4.41Zm-2.86,60.42c-2.04-.08-3.76,.39-3.61,2.87,.12,2.03,1.08,3.24,3.48,3.18,2.24-.06,3.5-1,3.7-3.07,.23-2.49-1.59-2.92-3.56-2.97Zm5.65,459.52c-.13-2.15-1.79-2.58-3.38-2.84-1.81-.29-3.56,.55-3.79,2.28-.25,1.87,.94,3.48,3.15,3.55,2.04,.07,3.27-1.17,4.02-2.99Zm-3.8-56.88c1.92-.23,2.96-1.34,2.89-3.27-.08-2.07-1.51-2.94-3.35-2.68-1.53,.22-3.62,.53-3.39,2.74,.21,1.99,1.78,3.01,3.84,3.21Zm48.8-3.22c-.36-1.95-1.84-2.76-3.56-2.65-1.62,.11-3.41,.72-3.28,2.93,.13,2.09,1.83,2.76,3.51,2.72,1.69-.04,3.22-.83,3.33-3Zm-3.31,57.21c-1.66,.28-3.1,1.22-3.35,2.99-.31,2.23,1.66,2.66,3.26,2.85,1.82,.22,3.32-.52,3.43-2.64,.12-2.17-1.55-2.66-3.35-3.2Z"/></svg>