<?xml version="1.0" encoding="UTF-8"?><svg id="Layer_13" xmlns="http://www.w3.org/2000/svg" viewBox="0 0 1061 1061"><defs><style>.cls-1{fill:#fefeca;}</style></defs><g><path class="cls-1" d="M484.56,492.56c3.37-5.3,7.96-13.23,11.36-18.52,.43-.67,4.55,.76,4.59,1.17,.14,1.43-.06,1.41,3.07-.06,3.42-1.61,3.56,1.14,5.29,1.22,1.7,.08,3.25,.13,5-.7,4.71-2.25,5.52-1.05,6.93-.13,1.19,.77,1.42,3.86,1.12,5.5-.46,2.53-2.6,4.91-3.65,7.33-.9,2.07-1.78,4.14-2.67,6.22,.35,.25,.7,.5,1.05,.75,.72-.81,1.58-1.54,2.13-2.46,3.65-6.13,7.22-12.3,10.84-18.45,.42-.71,1.51-3.43,2.16-3.72,1.66-.75,5.69-.6,6.71,.08-.15,1.42-1.12,2.32-1.92,3.97-.27,.57,.51-.88-.12,.79,5.11-2.22,4.92-.79,8.43,2.27,2.75,2.39,5.74-.61,7.66-3.35,4.63-6.61,8.77-13.98,13.95-19.79,1.26-1.41,2.77-2.9,4.49-3.65,1.07-.46,3.64-.77,4.51,.04,.82,.76,1.19,4.64,.66,5.44-1.59,5.46-5.5,8.33-9.06,12.33-1.82,2.04-4.23,2.07-1.25,4.39,2.66,2.14,2.35,4.34,3.77,6.91,.34-1.36,.66-2.45,.88-3.57,.94-4.88,5.73-8.19,10.11-9.5,.56-.11,2.96-1.49,5.4,2.69,.68,1.16,.02,2.69-1.44,4.42-.66,.78-3.66,3.47-4.62,4.26-.19-.64-1.15-1.19-.96-1.38,2.17-2.17,4.25-6,2.43-6.09-2.59,.14-2.32,.7-3.24,1.53-1.28,1.16-1.69,4.09,2.31,4.74-.83,2.43-5.43,1.7,1.79,2.8-.83,1.02-.82,1.99-1.79,2.83-2.33,2.02-4.71,.13-8.85,6.6-.45,.7-.08,2.28-.08,3.47,1.06-.08,2.65,.26,3.1-.31,3.28-4.06,7.16-7.93,9.27-12.58,4.28-9.45,7.53-19.37,11.31-29.06,.44-1.12,1.36-2.35,2.39-2.86,1.06-.52,2.52-.21,3.8-.26-.1,1.09,.03,2.26-.33,3.25-3.5,9.49-7.1,18.95-10.65,28.42-.98,2.61-1.89,5.25-2.83,7.88,.47,.3,.93,.6,1.4,.91,1.42-2.24,3.32-4.3,4.18-6.74,3.81-10.78,7.22-21.7,11.04-32.47,.57-1.6,2.59-2.69,3.94-4.01,.13,1.81,.8,3.78,.31,5.39-3.28,10.78-6.84,21.48-10.2,32.24-.41,1.3-.18,2.79-.25,4.2,1.01-.66,1.96-1.44,3.04-1.95,5.69-2.67,6.58-3.91,6.78-10.27-1.83,3.13-3.88,7.49-5.48,10.22-.49-.15-1.9,.66-2.39,.51,.32-2.12,1.67-6.98,2.42-8.94,1.84-4.77,3.45-9.43,5.59-14.08,.29-.63,2.07-1.67,2.69-2.15,.36,.66,1.2,1.71,1.18,2.36-.15,5.7,3.19,11.42-.43,17.39-.06,1.38-2.14,2.59,1.85,1.5,.21-.06,.65,3.13,.48,3.83-.52,2.06-8.36,6.23-10.63,5.93-.8-.11-2.04-.62-2.32-.29-4.03,4.66-10.3,2.02-14.96,4.7-3.43,1.97-5.7,.94-5.62-3.25-3.35,2.3-6.48,4.89-10.01,6.65-1.36,.67-3.88-.19-5.43-1.1-.64-.38-.46-2.84-.03-4.15,.6-1.87,1.78-3.55,2.7-5.31,.71-3.4,2.45-4.87,6.08-7.77-4.79,.23-6.23,2.04-8.34,7.32q-1.03,1.82-1.67,2.84c-3.35,5.32-7.12,9.67-14.23,9.65-3.82-.01-5.37-1.56-4.72-5.06,.71-3.83,1.89-7.57,2.79-11.36,.18-.77,.05-1.62,.07-2.43-.85,.39-1.4,.76-1.79,1.42-.74,1.23-1.21,2.28-1.65,3.97-1.85,7.18-5.12,9.88-10.57,13.37-.51,.32-2.04,1.85-5.01,2.32-7.5-2.61-7.07,2.44-9.4,6.7-.72,1.31,1.5-2.92-2.22,3.81-1.52,2.74-1.74,2.8-4.75,1.8,1.52-.18-3.83,1.58,.08-4.64,2.87-4.56,3.49-6.49,7.05-12.41-3.02,2.2-2.22,2.19-4.2,2.99-1.94,.78-4.02,.9-6.83-.19-1.82-.62-1.14-2.24-.49-4.11,1.36-3.91,4.21-9.63,5.76-13.48,.29-.72-.09-1.71-.15-2.57-.82,.45-2.05,.69-2.38,1.37-1.88,3.84-3.48,7.82-5.29,11.69-.76,1.63-1.61,4.45-2.95,5.41-1.28,.91-3.77-.05-5.49,.24-1.46-1-.48-2.46,0-3.62,1.7-4.11,3.61-8.56,5.37-12.65,.42-.98,1.03-2.2,1.13-3.33-1.04,.59-.99-1.59-3.03,1.82-2.34,4.58-3.97,9.53-6.55,13.98-1.56,2.69-1.69,4.35-5.16,3.19-3.81-1.28,.32-3.13,.12-4.65-.04-.3,.2,.4,0,0-1.65,1.3-3.71,1.63-5.37,2.86-.65,.48-4.71,2.66-5.17,.37-2.08-9.56-.97,.02-7.57-.91-3.32-.47-6.71-6.9-5.31-10.96,1.7-4.94,2.88-8.29,7.36-11.93,2.52-2.05,6.37-4.04,8.92-.18-6.33,3.29-6.59,7.57-9.17,11.81-.42,.69-.83,2.11-.76,2.87,.17,1.68,.39,2.36,.73,4.03,1.1-1.15,2.49-2.13,3.26-3.47,2.31-3.99,4.28-10.69,6.78-14.55,2.36-4.37,5.74-.26,7.37-1.16,.13,1.78-1.93,4.53-2.43,6.11-1.44,4.57-3.35,8.98-5.08,13.46,.26,.75,.51,1.51,.77,2.26,.41-.74,.82-1.49,1.23-2.23Zm65.32,.49c.72,1.37,1.22,2.3,1.72,3.24,1-.67,2.39-1.11,2.93-2.05,2.48-4.24,4.83-8.56,6.98-12.97,.58-1.19,1.85-2.01,.34-3.82-1.48,.34-3.75-.21-4.27,.69-2.81,4.82-5.17,9.9-7.7,14.92Zm-11.07-8.57c1.62-1.81,.01-4.51-.6-4.62-1-.17-2.71,.08-3.11,.75-2.99,5.08-5.76,10.29-8.43,15.55-.11,.21,1.43,1.26,2.2,1.92,6.35-4.6,7.57-7.01,9.94-13.59Zm23.16-16.93c-5.39,8.6,.51,1.42,1.16,.84,3.27-4.59,6.71-8.72,9.98-13.3,.21-1.82,.33-2.54-1.9-1.33-3.17,4.61-6.07,9.19-9.25,13.8Z"/><path class="cls-1" d="M476.32,445.91c5.24,1.58,5.25,7.85,1.73,11.09-4.96,4.56-11.02,5.65-17.27,6.64-1.27,.2-3.21,1.31-3.43,2.31-1.41,6.41-2.56,12.89-3.45,19.4-.33,1.58,.78,3.51,1.79,4.11,1.4-.57,2.79-1.29,3.29-2.36,1.75-3.7,4.28-7.35,4.51-11.44,.12-2.08-.85-1.97-1.54-2.55-.53,.61-.92,1.25-1.14,1.96-.67,2.12-1.07,4.33-1.67,6.48-.17,.59-.69,1.07-1.04,1.6-.58-.46-1.37-.79-1.7-1.39-1.69-3.06,1.71-10.92,5.12-11.25s3.63,1.58,4.39,2.83c3.17,5.2-1.82,17.65-7.79,19.34-3.31,.94-7.23,1.12-8.65-4.56-2.23-8.91-3.21-18.31,1.49-26.47,1.91-3.32,3.47-3.56-.45-5.07-.61-.45-2.03-1.28-1.83-4.28,.08-1.1-.35-5.62,2.44-6.62,.85-.19,2.53,.11,2.88,.36,0,.43-.17,.31-.55,1.26-1.03,2.6-2.53,5.94-.16,8.05,1.87-1.35,3.15-3.12,4.88-4.63,5.38-4.75,15.46-7.47,18.67-4.4-6.94,1.7-10.25,4.96-13.62,8.62-.74,.8-.62,2.39-.9,3.61,1.24,.06,2.5,.26,3.73,.14,6.88-.69,9.88-9.71,10.27-12.78Z"/><path class="cls-1" d="M612.94,446.13c.17,.72,.6,1.5,.45,2.15-.55,2.53-1.25,5.02-1.99,7.5-.06,.19-.87,.16-1.32,.23,.37-2.35,.72-4.7,1.11-7.05,.16-.95,.44-1.88,.66-2.81,.36,0,.72-.02,1.08-.02Z"/><path class="cls-1" d="M566.43,488.51c-.14-5.02,2.3-7.5,7.09-7.73-2.07,2.65-4.07,5.21-6.08,7.77-.34-.01-.68-.03-1.01-.04Z"/><path class="cls-1" d="M484.56,492.56c-.41,.74-.82,1.49-1.23,2.23-.26-.75-.51-1.51-.77-2.26,.67,.01,1.34,.02,2.01,.03Z"/><path class="cls-1" d="M561.69,467.57c3.17-4.61,6.35-9.21,9.52-13.82,.63,.44,1.26,.89,1.9,1.33-3.27,4.59-6.54,9.17-9.81,13.76-.54-.42-1.07-.85-1.61-1.27Z"/></g><polygon class="cls-1" points="484.46 515.38 487.44 516.65 487.58 518.21 486.59 518.5 484.04 517.79 482.48 517.5 481.35 519.49 481.63 521.47 483.05 522.18 484.89 522.04 486.59 522.18 487.58 523.32 486.59 524.45 484.46 525.3 481.49 524.73 479.36 522.32 478.65 519.63 479.36 517.22 480.78 515.95 482.48 515.38 484.46 515.38"/><path class="cls-1" d="M497.35,518.39l-2.83-1.13-2.41,.43-1.7,.99-.99,2.55,.28,2.69,.85,1.84s2.13,1.13,2.55,1.13,2.55-.28,2.98-.28,1.84-1.13,1.84-1.13l1.28-1.98,.14-2.13-1.98-2.98Zm-.99,5.1l-.57,1.04-2.83-.15-1.03-1.95,.71-2.23,2.59,.07,1.32,1.29-.19,1.94Z"/><polygon class="cls-1" points="509.61 519.87 511.49 520.01 511.49 527.28 510.36 528.55 505.08 522.57 504.55 522.53 504.55 527.56 502.56 527.14 502.49 519.38 504.83 519.59 509.22 524.16 509.61 519.87"/><path class="cls-1" d="M524.14,522.18l-1.2-1.59-1.56-.78-5.63-.28-.21,9.04,1.28,.11h3.33s1.84-.43,2.06-.53c.21-.11,1.59-1.67,1.59-1.67l.57-2.09-.21-2.2Zm-2.16,2.57c-.07,.14-.57,1.05-.57,1.05l-1.42,.74-2.48,.11,.07-5.1h.74l1.31,.11s1.35,.25,1.45,.28c.11,.04,.5,.53,.5,.53,0,0,.57,.81,.57,1.1s-.11,1.05-.18,1.19Z"/><polygon class="cls-1" points="528.39 520.23 528.39 528.71 535.36 528.57 535.16 526.75 529.94 526.75 529.94 525.17 535.25 525.17 535.25 523.65 529.85 523.65 529.85 521.7 535.32 521.7 535.32 520.19 528.39 520.23"/><polygon class="cls-1" points="539.57 519.83 541.93 519.76 545.57 524.13 546.42 523.96 546.51 519.71 547.98 519.57 548.02 526.94 547.1 527.79 545.71 527.55 541.67 522.31 541.36 522.5 541.39 527.64 539.73 527.69 539.57 519.83"/><path class="cls-1" d="M559.43,518.62l.45,1.02-.54,.94-1.16,.14-1.2-.8s-1.61,.09-1.68,.12-1.02,.73-1.02,.73l-.12,.57,.28,.43,1.44-.07s1.87-.02,1.94-.02,1.16,.35,1.32,.47,1.02,.99,1.04,1.06,.21,1.2,.21,1.25-.05,.9-.09,1.02-.87,.94-1.18,1.2-1.91,.78-2.29,.87-1.23,.19-1.32,.19-2.01-.05-2.1-.05-.85-.45-.85-.45l.05-.59s.83-.64,.9-.66,1.89-.24,2.01-.24,1.65-.26,1.72-.31,.8-.78,.8-.78c0,0-.19-.69-.26-.76s-1.04-.26-1.04-.26c0,0-1.89-.12-2.08-.12s-.94-.17-1.04-.21-1.28-.99-1.35-1.06-.21-.57-.21-.64,.17-1.61,.17-1.61l.71-1.06,1.7-.73,1.54-.24,1.89,.02,1.37,.61Z"/><polygon class="cls-1" points="569.4 516.45 565.83 517.16 563.73 517.77 563.73 526.84 569.54 525.54 569.54 523.7 565.22 524.6 565.24 522.8 569.43 522.16 569.4 520.27 565.2 520.98 565.2 519.12 569.4 518.29 569.4 516.45"/><path class="cls-1" d="M580.22,516.73c-.09-.12-1.63-1.13-1.63-1.13,0,0-2.5-.17-2.69-.14s-2.22,.57-2.22,.57l-.07,8.6s4.91-.94,4.98-.94,2.31-2.31,2.31-2.31l.09-2.41s-.69-2.1-.78-2.22Zm-.9,4.06l-.66,.87-3.31,.52-.04-4.54,.61-.35,1.54-.17s1.02,.35,1.18,.5c.17,.14,.4,1.54,.4,1.54l.28,1.63Z"/></svg>