<?xml version="1.0" encoding="UTF-8"?><svg id="Layer_9" xmlns="http://www.w3.org/2000/svg" viewBox="0 0 1061 1061"><defs><style>.cls-1{fill:#a8c8d5;}</style></defs><g><path class="cls-1" d="M563.79,556.63c-1.99,1.42-.58,4.34-3.37,4.99,.28,4.39-.32,8.54-1.87,12.64-2.06,5.45-3.87,7.97-7.88,11.65-3.47,3.18-7.28,5.22-11.68,6.82-2.26,.82-4.6,.34-6.86,1.51-1.66,.86-4.46,.83-6.46-.79-6.24,.51-10.78-3.35-15.11-6.72-4.33-3.37-7.01-8.45-8.89-13.65-.36-.98-.95-1.96-1.3-2.97-.36-1.03-1.02-1.98-.82-3.13,.91-5.08,1.1-10.46,3.3-15.07,2.38-5,5.82-9.35,10.82-12.57,3.88-2.49,8.11-3.77,12.17-5.61,.69-.31,1.61-.3,2.4-.2,6.36,.79,12.74,1.24,18.53,4.63,3.78,2.22,8,3.6,11.04,7.08,2.46,2.82,4.67,5.58,4.72,9.55,0,.51,.67,1.01,1.27,1.85Zm-24.37,33.43c2.36,.15,5.49-.88,7.3-2.35,.67-.54,1.14-1.16,.38-2.2-2.33,1.79-5.56,2.05-7.69,4.55Zm-7.08-41.75c0-.28,0-.55,0-.83-.95,0-1.91-.05-2.86,.01-.96,.06-2.05-.33-3.36,.82h6.22Z"/><path class="cls-1" d="M588.05,434.59c.74-1.55,2.49-1.85,4.03-2.91,3.26,.24,6.56-1.52,10.22-1.22,1.27,.1,3.58-.78,3.86-2.26,.37-2,2.14-2.35,2.98-2.44,2.52-.26,4.13-2.14,6.35-2.91,2.3-.8,4.13-2.76,5.12-5.16,2.28,.76,1.76,7.54,1.82,9.39-2.01,2.22-4.92,3.61-7.31,5.62-1.33,1.12-3.19-.4-4.07,1.59-.76,1.72-2.88,4.38-5.49,4.28-.61,.71-1.28,2.11-2.36,2.63-1.73,.82-3.59,.58-5.69-1.11-1.09-.88-2.54,1.17-3.25,1.59-4.47,2.62-9.88,1.59-14.38,3.91-3.14-.67-6,1.33-9.07,.97-2.49-.3-4.56-.59-7.09-.9-2.46-.3-5.16,1.37-7.45,2.06-4.05,1.22-8.23,.05-12.07,1.02-5.41,1.38-10.87-.68-16.08-1.37-6.9-.91-13.79,1.92-20.57,1.05-3.71-.47-7.38-.86-11.09-.81-1.8,.03-3.11-1.43-5.1-1.15-1.61,.23-3.38,.53-5.22-.56-1.37-.8-3.62,.08-5.32-.38-6.15-1.65-12.54-2.22-18.57-4.56-2.52-.98-5.34-1.55-8.02-2.33-.6-.18-1.17-5.19-1.76-5.61-4.05-2.91-9.67,1.73-12.74-3.03v-7.09c.41-.12,.79-.37,.99-.27,3.9,1.84,7.59,4.06,11.74,5.44,2.78,.93,4.86,3.35,7.61,4.52h6.99c2.78,.65,4.71,4.88,8.6,1.79,1.22,1.62,3.12,.91,4.8,1.27,1.78,.38,3.41,1.52,5.19,1.86,1.76,.33,3.63,.07,5.41,.07l1.83,1.83c3.77,0,7.55,.03,11.33-.04,.37,0,.73-.56,1.05-.83,2.76,.98,5.3,2.41,8.27,2.04,2.72-.34,5.5,.57,8.22-.65,1.97-.88,4.56-.97,6.24-.12,2.48,1.25,4.83,.69,7.19,.68,2.2,0,4.46,.78,6.72-.62,1.09-.68,2.91-.08,4.35-.33,1.1-.19,1.96-.36,3.21-.1,3.66,.76,7.42,.04,10.85-1.32,1.68-.66,3.69-1.04,4.65-.34,2.86,2.1,5.66,.61,7.67-.42,2.41-1.23,5.01-1.68,7.43-2.59,2.34-.87,5.25-.19,8.01-.19Z"/><path class="cls-1" d="M505.52,659.97c0-1.19-.14-3.36,.04-5.5,.17-1.99,2.63-3.29,1.79-5.78-.44-.16-1.01,.09-1.61-.13-.42-.75-.21-2-.12-2.78,1.85-.89,3.87-1.46,5.27-3.29,3.69-1.26,6.52,0,10.31,0,.96,.98,2,2.85,3.53,3.42,1.81,.67,1.86,2.36,3.03,3.3,2.13,1.72,3.01,4.05,2.76,6.83-.13,1.49-.02,2.99-.02,5.55-.19,.11-1.55,.46-1.79,1.18-1.23,3.64-4.74,4.5-7.44,6.16-2.51,1.55-5.23-.09-7.68-1.06-3.44-1.36-6.57-3.23-8.07-7.92Zm16.12-10.6c-.62-2.17-.92-4.5-4.45-5.17,1.9,1.96,.64,4.5,3.82,4.12,2.18,1.88,3.47,5.12,5.74,6.19,1.12-.69,.63-1.59,.82-2.65-.84-.69-1.83-1.49-3.05-2.48-.72,0-1.86,0-2.87-.01Zm-11.12,13c1.16,2.59,3.38,2.87,5.91,3.03-.59-2.38-3.65-1.75-3.91-4.03,.61-1.99,1.94-2.39,3.75-1.78,.13,.5,.25,.95,.46,1.74,2.23-.48,4.16,2.09,6.43,.85,1.06-.84,1.66-1.64,1.34-2.72-.22-.73-.75-1.37-.95-2.1-.25-.92,.29-1.96-.55-3.07-.84-.54-2.5-.99-2.85-1.93-1.25-3.34-3.97-3.16-6.31-3.89-1.28,.88-2.48,.7-2.73,.87-1.53,3.28,.78,5.38,.26,8.53-1.28-1.84-2.52-1.93-3.84-1.01,.43,2.63,1.02,3.69,3.01,5.51Zm.44-15.04c1.54-1.35,3.57-1.72,6.2-2.6-3.35-.71-5.58-.26-7.61,1.18,.35,.35,.71,.71,1.41,1.41Z"/><path class="cls-1" d="M545.24,668.08c-1.02,.05-4.66-1.55-5.24-1.86-.91-3.04-.41-8.67-2.57-11.47,2.06-2,1.09-4.54-.19-6.12-.93-1.16,1.2-4.22-.57-5.59h8.69c.49-.68,1.45-.39,1.96-1.1,.68,.62,.08,1.46,.52,1.85,.19,1.51,.41,1.59-.35,2.6,0,3.81-.45,7.75-.45,12.28,.7,.44,1.81,1.15,2.92,1.85,1.65,1.22,3.55-2.64,5.62,.67,.5-2.04,.74-3.59-.82-5.06,1.63-2.38,1.75-4.93,0-7.36,.44-.52,.75-.89,1.07-1.27-.11-1.11-1.97,1.2-1.96-.35,0-.68-2.16-3.24-2.46-3.83,.03-1.1,2.52-.63,2.97-1.34h3.89c.59,.54,1.95,1.26,2.44,1.71,.03,1.58-2.13,1.76-2.79,2.82,0,1.85,.36,3.5,.17,5.72,1.27,2.14,.51,4.14,.82,6.16,.31,1.98-1.8,5.21-1.96,7.23-2.3,1.23-3.86,1.06-6.3,1.97-2.43,.91-4.91,.62-6.72-1.67,1.65-1-.63-2.97,.78-3.91-1.81-2.21-1.09-4.63-.65-7.03,.6-3.35-.58-3.54-.34-6.23,.02-.26-.33-1.13-.64-1.79-.46,2.2-.98-.59-2.15,.46,0,1.62,.05,3.42-.01,5.22-.06,1.72,1.1,3.43,.01,5.15,2.2,2.05,6.71,10.04,4.3,10.29Zm1.92-3.65c.43,.54,.83,1.04,1.21,1.51,.44-.38,.78-.68,1.09-.94,.39,.32,.73-.26,1.1,.04,.37-1.33,1.91,.33,2.37-.67-.17-.76,.58-.89-.15-1.58-1.31,1.96-2.81,.18-5.62,1.65Z"/><path class="cls-1" d="M481.55,370.65c1.72,.55,3.02-1.89,4.59-1.63,1.89,.32,3.42-.41,5.06-.26,2.05,.19,2.84-.57,3.94-1.46,3.26-.55,4.47-.82,9.07-1.46,1.22-.42,3.05,.13,4.21,.34,1.45,.27,2.64-1.46,3.81-.47,2.96,.12,4.24,.27,5.51,.35,1.91,.12,.51-.45,1.06,0,1.45,1.18,1.61-1.34,2.97,.37,1.27-1.2,2.87-.47,4.11-.61,1.48-.16,3.25,.23,4.75,.23s2.73,.43,4.23,.43,2.47,.16,3.97,.16,3.07,.28,4.47-.09c1.17-.3,5.09-.64,6.33-.19,1.33,.48-.14,.28,1.36,.28h3.99c.48,.48,.95,.95,1.53,1.53-.6,.5-1.23,1.44-1.78,1.4-4.36-.32-8.84,1.1-13.08-.91-.27-.13-.66,0-.99-.02-2.1-.13-4.02,1.89-6.04,.92-1.87-.89-3.7-.9-5.61-.93-5.05-.06-9.97,1.66-15.07,1.05-1.16-.14-2.23-.16-3.09-1.07-1.29-.01-2.04,1.29-3.58,1.11-2.79-.33-5.65-.05-8.48-.1-4.02-.08-7.26,2-12.14,2.54-1.73,.64-3.45-.99-5.09,.46v-2Z"/><path class="cls-1" d="M575.46,653.38v-1c2.47-.04,5.06,.44,6.99-1.72,.06-.53-.06-.96-.74-1.43-1.2,.67-2.45,1.76-3.87,2.07-1.72,.37-3.58,.09-5.38,.09,.09-3.36-.65-6.85,2.13-9.83q-3.48-.06-5.13,1.89c1.82,2.46,.8,7.71,1.1,10.36-.5,0-1.81-2.42-2.69-2.42-.04-1.9-.78-3.82-.52-5.7,.25-1.83-.81-3.12,.32-5,5.11-.63,9.63-3.23,15.05-4.02,1.78,.2,4.32,.51,5.53,2.4,.45,1.74,1.64,2.51,.78,5.24-.57,1.81-1.02,3.7-2.23,5.16-2.91,3.53-6.8,5.03-11.35,4.91v-1Zm3.36-4.13c.97-.84,1.61-1.73,2.4-2.42-.01-1.78,.61-3.41-1.44-4.42-1.4,0-3.16-.48-4.2,1.42v5.41h3.24Zm7.05-7.87c-1.89-.06-2.95-.65-4.05-1.86-.6,.6,.26,0-.21,.46,2.58,.56,2.41,4.11,4.74,5.43,0-1.79-.49-2.26-.49-4.04Z"/><path class="cls-1" d="M481.55,370.65v2c-3.91,.94-7.5,1.67-11,2.73-4.27,1.29-8.72,1.77-12.93,3.26-5.51,1.95-11.02,3.87-16.16,6.7-.5,.27-4.77,2.41-5.21,2.52-.87-.63,3.47-3.73,3.33-4.49,2.15-1.54,4.62-2.64,6.46-4.67,.35,.31,.7,.63,1.04,.94,.7-.34,.34-1.16,.8-1.81,.96,.75,2.52,1.48,3.22,.67,2.34-2.72,5.91-1.83,8.62-3.4,2.87-1.67,6.15-1.58,9.33-1.39,1.49-1.67,3.67-1.69,5.48-2.46,.11-.5-.17-1.06,.42-1.43,1.53,1.51,3.04,.92,4.45-.11,1.06-.31,1.2,1.18,2.15,.97Z"/><path class="cls-1" d="M474.15,700.41c-.25,.19-.48,.37-.71,.55-.86,.68-.89-.57-1.42-.61-.64-.04-1.36,.12-1.44-.72-.17-1.15,.86-1.41,1.16-2.02,2.27,.59,4.44,1.51,6.65,1.63,2.42,.13,4.94,.59,6.83,1.56,2.31,1.19,5.01-.84,6.87,1.51,.86,1.09,1.5-1.91,2.81-.28,.41,.52,1.85,.34,2.8,.27,4.04-.27,7.97,.26,11.82,1.51,0,.33,0,.66,0,1.22-1.44,.69-3.39-.27-4.73,1.04-1.72-1.45-3.78-.46-5.65-.76-1.7-.27-3.62,.75-5.11-.94-.22-.25-.96-.11-1.44-.05-4.88,.57-9.27-1.68-13.93-2.39-1.61-.24-3.33-.06-4.5-1.54Z"/><path class="cls-1" d="M550.53,704.34c-3.77,1.71-8.18-.32-11.41,2.8-7.47,0-14.89,.01-22.3-.04-.35,0-.7-.66-1.1-1.05-.2-.78,.73-.84,1.05-1.7,2.82,0,5.77,.12,8.7-.03,3.02-.15,6,.32,9.1-.78,1.8-.64,4.35-.81,6.56,.69,1.02,.69,2.9,.12,4.39,.12h5.02Z"/><path class="cls-1" d="M523.09,680.42c-.34,.27-.67,.55-1.02,.83-.57-.4-1.19-.79-1.4-1.56l.91-.91c-.54-.52-1.09-1.04-1.36-1.3-1.58-.47-2.09,1.61-3.41,.67-1.01-1.51,.61-1.91,1.17-2.78h3.04c.64,1.29,1.31,2.62,2.4,4.8v-7.66c.79-.05,1.24-.08,2.05-.14v6.92c1.38-2.54,1.91-4.68,4.78-3.7,.24,.3,.79,.88,1.22,1.55,.12,.19-.1,.59-.16,.9-1.14,1.18-1.61-.36-2.39-.59-1.27,.81-1.68,1.96-1.36,3.53,.5,.17,1.08,.37,1.68,.58,.44,.6,.4,1.17-.23,1.79-1.94,0-2.52-1.45-2.86-3.8-.48,1.37-.68,1.95-1.18,3.4-.34-1.44-.57-2.44-.8-3.43-.36,.3-.72,.59-1.09,.89Z"/><path class="cls-1" d="M536.77,676.13l-2.02,2.02c-.4-.24-.42-.92-.21-1.22,.76-1.11,1.72-2.02,3.36-1.54,1.23,.53,1.47,1.87,2.18,3.14,.9-1.99,.04-4,.58-5.83,.36-.56,.89-.27,1.36-.35,1.08,1.09-.02,2.57,.71,3.76,1.44-.34,2.68-1.17,3.81-1.97,1.06,.87,2.27,1.31,1.87,2.78-1.49,1.81-2.09-1.44-3.42-.56-1,.97-.47,1.71,.41,2.32-.2,1.16-1.57,.2-1.81,1.22,.28,.84,1.56,.03,1.91,1.23-1.49,.16-2.98,.57-4.05,1.28-1.36-.35-.58-1.64-1.44-2-.29,1.96-2.12,1.89-3.39,3.17-.07-.98-.1-1.3-.12-1.56,.31-1.07,1.59-.29,2.06-1.48,.21-.64-.47-1.15-1.05-1.66,.34-.39,.64-.73,.94-1.07l-1.68-1.68Z"/><path class="cls-1" d="M562.47,674.36c-.33,.69-.74,1.37-.97,2.09-.14,.44-.03,.97-.03,1.55,.61,.22,1.19,.42,1.79,.64-.08,.85-.85,1.15-1.62,2.02-.68-.68-1.34-1.34-1.98-1.98-.43,.42,.11,2.02-1.61,1.66-1.07-.14-.16-1.52-.98-1.89-.83,.25-.47,1.04-.72,1.55-.89,.58-1.8,.54-2.71,.03,.07-1.01,.9-.52,1.42-.72,1.16-1.57,.29-2.69-.88-3.74-.83,.08-1.36,1.4-2.53,.49,.43-.87,.87-1.78,1.25-2.57,2.56-.72,3.38,1.02,4.55,2.78v-5.8h2.06v6.06c1.68-1.27,1.19-3.48,2.97-4.16v2Z"/><path class="cls-1" d="M472.1,668.33c1.69,.16,2,1.56,3.07,1.93,.97-.71-.17-1.96,.79-2.79h1.22c.67,.95,.37,1.97,.33,2.91-.03,.63-.49,1.24-.74,1.84,2.41,.8,2.73-3.56,5.39-1.59,.76,.59,.41,1.53,.17,2.46-1.11,1.03-1.61-.38-2.41-.6-.83,1.04-.03,2.25-.45,3.19,.76,1.37,2.37,0,3.08,1.26-1.22,.68-2.47,.46-3.67,.27-.84-.82,.23-2.06-.74-2.76-.83,.25-.47,1.03-.72,1.56-.58,.72-.8-.11-1.03-.34-.43-.44-.9-.25-1.48-.28-.19,.55-.39,1.13-.61,1.75-.89,0-1.15-.87-1.76-1.28,.6-.58,1.19-1.16,1.76-1.72,.48-.79,.22-1.59,.16-2.37-.72-.99-1.97,.13-2.71-.7-.19-.94-.59-1.9,.34-2.75Z"/><path class="cls-1" d="M588.85,669.9c-.72-2.79-2.28-4.45-.96-6.5,.46,.43,.91,.84,1.52,1.41v4.31c1.66-.75,1.56-2.39,2.3-3.51,.94-.47,1.82-.15,2.71-.07v1.32c-.73,.82-2.13,.66-2.72,1.77,.13,1.59,1.6,1.56,2.97,2.31-.68,.33-1.25,.6-1.82,.88-1.52,.51-3.41,1.07-5.15-.37-.17,1.9-1.72,2.72-2.74,3.96-1.1-1.04-.43-1.83,.41-2.41,1.15-.8,1.18-1.88,1.07-3.07-1.33-1.44-2.5,0-3.91,.26,0-.49-.19-1.11,.03-1.36,1.89-2.13,2.46-2.06,6.28,1.09Z"/><path class="cls-1" d="M488.19,672.61c1.19,1.08,1.54,1.4,1.94,1.77,.94-1.53-.08-3.29,.73-4.88,.39-.03,.84-.06,1.76-.12-.53,2.03,1.04,4.02-1.23,5.69,1.96,.67,1.98-.28,2.33-1.27,.21-.6,.85-1.44,1.98-1.46,1.62,.74,2.36,1.92,1.56,3.8-1.04,.76-1.64-.24-2.22-.78-.55,.55-.9,.9-1,1,.96,.96,1.95,1.95,2.83,2.83-1.09,1.71-2.09,1.02-2.95,1.04-.87-.34,.25-1.88-1.15-1.87-1.62-.28-.9,1.43-1.65,1.91-1.35-.59,.12-2.22-1.05-2.88-.69,.64-1.38,1.28-2.86,2.65,.95-2.75,1.83-4.65,.98-7.44Z"/><path class="cls-1" d="M573.48,673.89v-5.77c.69,.66,1.56,1.48,2.32,2.21-.74,.51-.35,1.74-.17,3.67,.99-1.98,1.66-3.31,2.4-4.79,1.45,.53,2.64,1.09,2.32,3.33-.62-.48-.94-.73-1.29-1-1.53,.68-1.92,1.89-1.47,3.53,.53,.2,1.11,.41,1.68,.63,.01,1.05-.95,.98-3.4-.24-.9,.73-.04,1.91-.58,2.73-1.23,.04-.69-.82-.9-1.43-1.15-.52-2.41-1.09-3.7-1.68-.15-.84,1.42-1.31,.39-2.63-.72,.61-1.47,1.24-2.21,1.85-.83-.72-.12-1.63-.47-2.27,.55-1.09,2.09-.31,2.44-1.53,1.48,.39,1.26,2.03,2.64,3.41Z"/><path class="cls-1" d="M466.58,669.95c-.19,1.68,1.55,1.77,1.78,3.15-.09,.2-.52,.23-1.01,.27-2.98,.25-2.63-2.18-2.98-3.92-1.35,.17-.37,1.55-1.25,1.85-.47,.04-.96,.23-1.38-.27-.93-1.26,1.12-1.78,.65-3.76-.01-.05-.73,.1-1.34,.08-.84-.84-.5-1.77-.26-2.7,2.12-1.43,1.3,1.51,2.39,1.61,.87-.74-.02-1.92,.61-2.79h1.78v3.94c.85-.48,1.35-.76,1.86-1.05,1.26,.21,2.01,.91,2.14,2.2-.39,1.83-2.2,.02-2.98,1.4Z"/><path class="cls-1" d="M600.73,658.52c2.63,.79,1.19,3.33,2.05,5.07,.68-1.31,1.01-2.54,2.22-3.14,.43,.67,1.4,.93,1.43,1.87,.1,1.36-1.11,.86-1.71,1.25-.67,.7-.04,1.57-.41,2.4,.69,.24,1.26,.44,1.97,.68-.3,.94-.92,1.48-1.29,1.58-1.4,.35-1.49-.67-2.24-.74-.17,.49-.37,1.06-.58,1.65-.63,.33-.68-.43-1.27-.63-.64,.56-1.37,1.21-2.14,1.88-1.06-2.25,1.54-2.44,1.67-3.9,.11-.53-.24-.87-.85-1.43,1.7-1.86,.26-4.36,1.14-6.53Z"/><path class="cls-1" d="M453.42,661.65c-.44-.32-1.23-.9-2.06-1.5,1.21-1.38,3.11-.04,4.22-2.89v5.17c.84-.49,1.34-.77,1.92-1.11,1.11,.52,2.28,1.01,2.01,2.62-1.15,.98-2.61-.1-3.77,.75,.49,1.66,2.81,2.08,2.88,4.03-.27,.24-.5,.44-.92,.81-2.14-1.11-3.37-3.3-4.98-4.47-.51-1.54,1.22-1.84,.7-3.41Z"/><path class="cls-1" d="M613.99,657.69c-.1,.06-.91,.56-1.55,.95,.47,1.24,2.06,.04,1.77,2.58-.14,.5-1.45,1.23-2.62,2.34-1.6-.62-2.37-2.56-4.14-2.47-.15-2.41,1.64-2.43,3-3.15v-3.79c1.01,1.01,2.18,2.18,3.54,3.54Z"/><path class="cls-1" d="M509.97,681.26c.62,.26,1.17,.07,1.64-.48,.5-.59,1.09-.58,1.72-.14,.11,.78-.74,.89-1.04,1.56h-5.43c-.91-.87-.16-1.56,.62-2.28-.99-1.29-2.44-.05-3.7-.87-.69-1.12,1.72-3.07-.38-4.61,1.93,.04,1.63,3.57,2.8,3.89,.77-1.79,.03-3.74,.41-5.52,.33-.53,.84-.43,1.52-.45,1.11,1.82-.25,4.11,.82,5.97,.53-.27,.57-.7,.61-1.18,.02-.27,.25-.63,.49-.76,.45-.25,.58-.03,.5,.48-.22,1.46-.38,2.93-.56,4.4Z"/><path class="cls-1" d="M618.02,658.29c-.78,.07-1.58,.31-2.32-.12-.86-1.25,.54-3.05-1.54-4.37,.93-.5,1.76-.95,2.14-1.16,.1-1.77,.16-2.89,.22-3.91,1.38-.93,1.85,.23,2.55,.81q.49,5.21-1.05,8.75Z"/><path class="cls-1" d="M607.04,691.35c-5.03,4.98-10.71,5.28-16.39,6.33,.31-3.07,2.79-2.52,4.04-2.87,3.29-.93,6.59-1.68,9.59-3.42,.47-.27,1.24-.04,2.76-.04Z"/><path class="cls-1" d="M451.57,662.88c-.61,.85-1.51,.37-2.28,.5-1.67-1.07-2.78-2.59-3.43-4.59,1.91-1.21-.02-2.51-.56-3.79,1.16-.57,2.06-1.02,2.97-1.47,.55,1.35,.57,2.52-.72,3.32,1.32,1.45,1.8-.04,2.58-.43,.95,1.92,.54,3.69-.69,5.02,.46,1.34,1.73,.58,2.12,1.45Z"/><path class="cls-1" d="M569.46,702.34c.66-2.31,2.75-.84,4.09-1.34,2.67-.99,5.54-2.29,8.7-1.47,.07,.99-.79,1.37-1.31,1.72-.45,.31-1.58-.19-1.87,.14-1.27,1.45-3.19,1.12-4.72,1.82-1.37,.62-3.24,.13-4.88,.13v-1Z"/><path class="cls-1" d="M569.46,643.45q1.65-1.95,5.13-1.89c-2.79,2.97-2.04,6.47-2.13,9.83-.76-.15-.91,.65-1.51,.88-.35-.1-.56-.4-.49-.88"/><path class="cls-1" d="M626.3,400.37c.49-5.68-.9-10.07-3.1-14.32,2.32-.21,1.68,2.04,2.78,2.63,1.42,.76,1.27,2.56,2.43,3.45-.03,2.52,.43,5.14-2.11,8.24Z"/><path class="cls-1" d="M573.46,662.38c-1.25,1.3-3.43,1.02-4.64,2.39-.47-.47-.86-1.4-1.33-1.87,1.68-1.81,2.16-4.06,2-6.52,.83,.07,2.33-.04,2.69-.01,1.36,1.78-1.77,3.11-1.77,4.42,1.52,1.8,2-.63,3.06-.41v2Z"/><path class="cls-1" d="M569.46,702.34v1c-3.29-.73-6.31,1.06-9.53,1.01-3.15-.05-6.3-.01-9.45-.01,0-.16-.07-.4,.01-.48,.22-.21,.52-.52,.75-.5,6.14,.72,12.11-1.45,18.22-1.02Z"/><path class="cls-1" d="M573.46,662.38c0-.67-.06-2.75-.06-3.42,.97,.08,1.06,.83,1.06,.15,0-1.65-.03-3.3,.02-4.94,.02-.51,.36-1.89,.98-1.78v2c.26,2.65,2.78,3.77,2.02,7.99h-4.02Z"/><path class="cls-1" d="M572.46,651.39c1.8,0,3.66,.28,5.38-.09,1.42-.31,2.66-1.39,3.87-2.07,.67,.47,.8,.91,.74,1.43-1.93,2.16-4.52,1.68-6.99,1.72-.98-.38-2.53,.93-3-1Z"/><path class="cls-1" d="M444.65,651.16c.72,.18,1.17,.29,1.6,.4,.53,.35,.28,.88,.32,1.34-.8,.86-1.75,.45-2.74,.3-.02-1.86-1.54-3.37-1.23-5.33,.32-.43,.76-.56,1.49-.42,1.01,.9,.24,2.27,.56,3.71Z"/><path class="cls-1" d="M510.26,676.1c.71-.69,1.18-1.15,1.74-1.69,.86,.84,1.73,1.7,2.47,2.43,.26,1.47-1.02,1.71-1.37,2.59-1.09-.78-.24-1.93-.64-2.57-.63-.85-1.36-.25-2.2-.75Z"/><path class="cls-1" d="M488.56,673.37c-1.42-.53-2.19,1.34-3.54,.95-.51-.32-.67-.96-.43-1.29,.97-1.38,1.02-1.35,3.62-1.51,.66,.51,.19,1.24,.36,1.85Z"/><path class="cls-1" d="M562.47,674.36v-2h2.46c1.01,.74,.44,1.73,.42,2.62-1.36,1.58-1.82-.86-2.87-.62Z"/><path class="cls-1" d="M623.17,407.9c-.97,1.05-1.44,2.87-4.36,2.6,1.81-1.2,2.21-2.89,4.36-2.6Z"/><path class="cls-1" d="M503.95,674.48c-1.3,.86-1.31,1.88-1.77,2.72-.64,.29-1.2,.24-1.75-.47,.33-1.38,.9-2.52,3.51-2.25Z"/><path class="cls-1" d="M439.42,548.66v5.82c-1.16-2.66-.7-4.25,0-5.82Z"/><path class="cls-1" d="M506.18,680.51c-1.58,.98-2.67,.89-3.16,1.85-.45-.45-.91-.91-1.55-1.55,1.34-.81,2.61-.36,4.71-.29Z"/><path class="cls-1" d="M539.42,590.06c2.13-2.5,5.36-2.76,7.69-4.55,.76,1.04,.28,1.66-.38,2.2-1.82,1.47-4.94,2.51-7.3,2.35Z"/><path class="cls-1" d="M532.34,548.31h-6.22c1.31-1.15,2.4-.75,3.36-.82,.95-.06,1.91-.01,2.86-.01,0,.28,0,.55,0,.83Z"/><path class="cls-1" d="M520.95,649.39h3.56c1.22,.99,2.21,1.8,3.05,2.48-.18,1.06,.3,1.96-.82,2.65-2.27-1.07-3.62-3.25-5.8-5.13Z"/><path class="cls-1" d="M510.52,662.38c.67-.33,1.33-.67,2-1,.25,2.28,3.32,1.65,3.91,4.03-2.53-.16-4.75-.44-5.91-3.03Z"/><path class="cls-1" d="M521.64,649.37c-3.87,.39-2.55-3.21-4.45-5.17,3.53,.67,3.84,3,4.45,5.17Z"/><path class="cls-1" d="M510.96,647.33c-.71-.71-1.06-1.06-1.41-1.41,2.04-1.44,4.27-1.89,7.61-1.18-2.63,.88-4.67,1.25-6.2,2.6Z"/></g><path class="cls-1" d="M495.49,655.12l-2.62-2.19-2.81-1.45-3.75-1.61-.08-.03-.11-.08-.87-.51-1.06-.58,.15-1.17,.11-1.31,.18-1.64h3.24l.44,.22,2.92,1.6,2.77,.81,.73-.22,.69-.7v-.8c-1.28-2.26-2.81-4.7-3.72-5.94l-.55,.84-.8,1.24-1.35-.51c-.98-.36-2.26-.8-2.62-.91-.33,0-1.17-.15-4.3-.95l-3.06,.58-2.12,1.57-.65,2.7,.65,2.59,1.28,2.73,3.1,2.73,2.11,1.64,1.97,1.1,2.19,1.49,.36,.26,.18,.36,.55,.91,.26,1.62-1.21,.97-1.67,.65-.59,.22-.58-.18-2.19-.65-.62-.19-.36-.51-2.37-3.35-.44-.44-1.71,.69-1.2,.48,.22,.4,.07,.15,.03,.18,.7,2.55,1.57,3.1h2.04s2.25,.53,2.25,.53l.11,.04,.15,.04,2.77,1.16h3.24l3.9-.47,2.23-.99,.83-2.55v-3.64l-.58-2.59Zm-1.3,6.47l-1.28,.93-.85,.92-2.98,.24-3.05,.24-2.53-.92-.14-.02h0l-.24-.12-.28-.12-1.9-1.12-2.48,.19-.66-1.7-.16-1.92,.14-.17h0l1.06-.38,2.08,2.72,.36,.51,.18,.26,.31,.09,.61,.18,2.18,.65,.58,.18,.3,.1,.29-.11,.6-.23,1.67-.65,1.97-.77,.98-.38-.52-.91,.1-1.19-.19-.57-.12-.45-.31-.66-.47-.61-.45-.69-2.27-1.7-1.68-.87-1.75-1.35-2.13-2.72-1.39-2.17-.28-1.87,.09-1.28,.57-1.09,2.06-.71c2.93,.75,3.52,.36,3.93,.38,.45,.15,1.55,.46,2.43,.78l1.44,.61,.69-.42,.4-.62-.02,1.23c.82,1.24,.31,.28,1.23,1.89l.47,.28,.14,.28-.61-.33-.73-.71-2.06-1.23-.8-.28-.52-.28-5.01-1,.07,2.66,.26,1.53-.11,1.27-.98,1.01,.09,.87,.47,.71,1.28,.61,1.28,.47,.45,.24,.31,.38,2.74,1.84,2.69,1,1.51,2.21,.92,1.45v3.4Z"/></svg>