<?xml version="1.0" encoding="UTF-8"?><svg id="Layer_10" xmlns="http://www.w3.org/2000/svg" viewBox="0 0 1061 1061"><defs><style>.cls-1{fill:#f8371e;}</style></defs><path class="cls-1" d="M623.26,541.03c1.79,1.49,1.41,3.42,1.4,5.19-.07,34.11-.24,68.22-.18,102.33,0,4.03-1.02,7.83-1.31,11.77-.34,4.56,2.85,8.18,2.35,12.87-.53,5-2.15,8.67-6.34,11.57-16.69,11.58-35.64,16.67-55.38,19.16-18.17,2.29-36.52,2.3-54.69,.74-15.04-1.29-30.25-3.35-44.45-8.92-9.65-3.79-22.64-7.1-27.3-17.57-1.76-3.96-.23-8.71,2.57-11.76,.89-.97,2.19-3.77,1.84-4.82-2.3-6.85,2.96-10.52-.43-17.72-1.77-3.75-.12-10.74,.43-15.45,.91-7.78,.17-13.51-.85-21.26-.88-6.7,1.05-15.33,.57-22.11-.82-11.53-1.43-22.12-.85-33.73,.09-1.73-2.25-6.27,.57-7.37,16.65,12.73,37.93,18.71,58.52,21.26,4.57,13.48,13.95,22.22,26.91,27.46,1.21,.49,2.13-.09,3.25-.4,8.8-2.4,15.52-8.56,23.3-12.78,1.74-.94,2.74-2.69,3.32-4.77,3.47-14.84,4.69-9.4,13.08-10.79,18.45-3.06,35.03-9.69,49.49-22.25,.85-.74,2.48-.88,4.18-.67Z"/><path class="cls-1" d="M563.61,430.06c-6.43,.68-13.5,1.02-20.39,2.33-3.01,.57-6.36,.48-8.77,.19-4.56-.56-8.76,.84-13.07,.55-6.22-.41-12.59-.58-18.59-2.05-11.19-2.75-22.65-4.31-33.65-7.84-9.96-3.2-19.68-6.9-28.66-12.37-7.43-4.53-11.04-14.46-5.87-21.23,1.38-1.81,5.5-4.33,7.75-5.26,16.12-6.65,32.22-10.94,49.6-13.1,18.1-2.25,36.78-3.38,55-3.64,13.59-.19,28.05-.11,41.09,3.14,11.75,2.92,23.37,4.23,33.95,11.44,4.33,4.76,9.66,6.08,9.27,13.63-.38,7.36-3.9,10.78-8.92,16.82-12.9,7.79-27.15,11.45-41.67,14.35-5.48,1.09-10.65,3.85-17.05,3.06Z"/></svg>