<?xml version="1.0" encoding="UTF-8"?><svg id="Layer_7" xmlns="http://www.w3.org/2000/svg" viewBox="0 0 1061 1061"><defs><style>.cls-1{fill:#010101;}</style></defs><g><path class="cls-1" d="M449.58,680.36c2.79-.19,4.6,1.96,6.53,3.26,3.13,2.12,6.63,3.21,10,4.62,1.13,.47,1.83,1.19,3.03,2.11,1.88-.24,3.97,.35,6.09,.94,1.25,.35,1.98,.89,2.33,2.06-2.66,.39-4.9-.92-7.85-1.67-.68,.61-1.51,1.98-3.42,1.91,3.83,3.56,8.04,4.96,12.61,5.8,4.04,.74,8.04,1.59,12.14,2.1,4.72,.59,9.43,1.38,14.14,2.06,3.05,.44,6.14,.24,9.09,.84,9.32,1.89,18.71,.5,28.06,.91,6.21,.27,12.3-1.45,18.57-1.13,1.88,.09,3.96-1.12,6.07-.83,1.99,.27,3.55-1.25,5.59-1.09,2.02,.16,3.89-1.05,6.07-1.07,1.86-.02,3.86-1.1,5.51-2.16,.96-.62,1.78-.63,1.68-.62,2.19-2.15,3.81-3.75,5.35-5.27q-1.45-.83-3.56,.18c-1.04,.31-1.18-1.19-2.14-.97,0-.16-.02-.45,0-.46,2.36-.39,4.53-1.64,6.99-1.54-.55,1.58,1.76,2.45,1.15,4.21-.7,.78-1.4,1.56-2.49,2.77,5.56-.12,9.35-3.49,13.94-5.52,.15-1.01,1.34-1.89,2.35-2.93-.85-.57-.73-1.74-1.36-2.37-.46-.46-1.72,.02-1.55-1.74,1.2-.65,2.99-.68,4.23-2.04,.97-1.07,2.81-1.3,3.99-2.24,1.24-.98,2.52-2,3.73-3.02,1.23-1.04,2.32-2.25,3.61-3.22,1.46-1.1,1.5-3.26,3.38-4.21,0-.94,.39-2.21-.07-2.83-1.37-1.8-.77-3.74-.92-5.63-.25-2.99,.61-6.07-.74-8.97,1.7-3.12,.46-6.46,.69-9.68,.23-3.15,.05-6.32,.05-9.48v-77.39c0-3.16-.05-6.33,.01-9.49,.12-6.21-1.45-12.3-1.09-18.56,.35-6.14-.02-12.31,.11-18.47,.11-5.2,1.51-10.31,1.01-15.57-.11-1.16-.04-2.27-1.06-3.08-.14-1.32,1.13-2.07,1.12-3.58-.14-24.78-.1-49.56-.1-74.82-2.46,1.49-4.59,2.86-6.81,4.09-5.85,3.23-12.39,4.64-18.54,7.06-2.67,1.05-5.5,1.04-8.22,1.8-2.53,.7-5.19,.99-7.71,1.93-2.08,.78-4.59-.66-6.49,1.21-3.3-.74-6.28,1.3-9.58,1.06-2.8-.21-5.51,1.78-8.5,.67v-1.66c8.57,.21,16.46-2.47,23.83-4.51,1.67-1.61,.59-3.09,1.34-4.42,.88,.43,1.78,.86,2.67,1.29-.32,.77-1.11,.44-1.99,.92,.56,.71,1.03,1.36,2.11,1.7,1.43-.4,2-2.48,3.82-2.45-.2-1.1-1.54-.19-1.9-1.17,.47-.38,.97-.79,1.68-1.37h3.88c.42-.56,.91-1.22,1.58-2.14,2.87,1.19,5.48-2.71,8.46-.03,.75-.41,0-1.59,1.13-1.92,3.11-.91,6.17-1.97,9.25-2.97,.69-.03,1.02,.31,1,1v2.17c2.75-.81,4.91-1.69,5.99-4.17,.76-.15,1.91,.5,2-1v-1c.6-.11,1.29,.28,1.85-.34,.27-.6,.25-1.16-.32-1.63-.55,.27-.72,1.11-1.53,.97-.01-.81-.25-1.87,.72-2.17,3.36-1.05,3.96-4.19,5.21-6.78,.3-.62,.78-1,1.06-1.72v-4.82c-.37-2.03-3.31-2.91-2.71-5.62,2.89,.57,2.94,2.42,4.79,3.46,.08,2.5,.78,1.74,.78,5.33-.21,3.67,.09,3.65-.52,5.45-.57,1.68-1.83,3.12-2.75,4.83-.72,1.92-2.26,3.11-3.59,4.57,0,23.92,0,47.89,0,71.86,0,1.59-.36,3.28,1.1,4.39-1.31,2.41-1.8,4.63-.06,6.9-1.7,3.17-1.28,6.62-.76,9.92,.51,3.27,.71,3.2-.2,7.78-.32,1.6-.71,3.76,.07,4.87,1.26,1.79,.78,3.48,.81,5.18,.11,5.66,.05,11.32,.04,16.98,0,2.15-.58,4.41-.35,6.37,.27,2.28,.18,4.53,.32,6.79,.14,2.32,.03,4.66,.03,6.99v104.61c1.27,2.09,2.53,4.42,4.03,6.58,1.02,1.47,1.34,3.12,.87,4.58-.56,1.73-.75,3.6-2.07,5.14-5.63,6.56-12.7,11.17-20.24,15.11-2.85,1.49-5.97,2.44-8.91,3.81-2.89,1.35-6.08,2.6-9.15,3.1-3.9,.63-7.53,2.44-11.61,2.35-2.13-.05-4.25,1.08-6.51,1.11-.45,0-.87,.91-1.65,.79-3.94-.61-7.63,1.63-11.57,1-6.78,1.95-13.71,.76-20.56,.96-6.82,.2-13.65-.08-20.47,.11-2.33,.07-4.19-1.51-6.59-1.14-2.28,.35-4.83,.63-6.94-.05-3.23-1.05-6.51-.26-9.59-.98-4.42-1.03-9.04-.99-13.33-2.74-1.71-.69-3.9,.39-5.52-1.15-4.35,.09-8.31-1.65-12.2-3.1-7.33-2.73-14.64-5.76-20.07-11.75-1.15-1.27-2.66-1.97-3.78-3.3-3.31-3.92-4.38-8.39-3.86-13.5,2.19-1.19,2.24-3.97,3.91-5.94,0-31.43,0-63.05,0-94.67,0-1.27,.42-2.69-1.18-3.24,1.4-2.57,1.89-4.79,.19-7.01-.33-1.24,1.55-1.74,1.01-3.09-1.15-2.88-1.94-5.78-.1-8.69-1.61-1.63-.87-3.69-.88-5.54-.06-15.65,.74-31.35-.24-46.93-1.12-17.87-.36-35.7-.79-53.54-2.24-10.94-.24-22.03-1.2-33.19-2.08-1.19-2.2-3.92-3.71-5.76,.26-.3,.58-.65,.97-1.09-.62-.22-1.2-.42-2.07-.72,.32-3.53-.91-7.3,1.53-10.66h1.49v9.35c1.9,3.6,4.79,6.2,7.84,8.61,2.83,2.23,6.66,2.98,8.48,5.91,1.29,.25,1.62-.41,2.09-.82,.81,.26,.45,1.04,.71,1.55,.75,.82,1.92,0,2.7,.5,.04,1.55-1.51,.31-1.7,1.17,.64,1.26,1.25,2.47,1.87,3.69-3.71,.13-6.5-2.14-9.33-3.97-2.1-1.35-4.64-2.02-6.39-3.98-.29-.32-1.25-.05-1.76-.05-.25,.25-.48,.46-.47,.47,.31,.38,.64,.73,.94,1.06,.18,.77-.15,1.3-.73,1.7,1.06,1.37,.75,2.97,.75,4.49,.01,13.49-.02,26.97,.04,40.46,0,2.21-.65,4.55,.92,6.61,.32,.42,.11,1.3,.04,1.96-.25,2.32-1.95,4.61-.66,6.94,1.41,2.55,.4,5.16,.62,7.72,.22,2.48,.05,4.99,.05,7.49s.15,5.01-.06,7.49c-.12,1.44,.75,2.4,1,3.6,.24,1.19,.31,2.56-.83,3.53,1.42,.93,.86,2.38,.84,3.62-.01,.53-.63,1.04-1.12,1.77,1.59,1.48,1.79,3.87,1,5.3-1.01,1.82-.78,3.46-.79,5.18-.07,7.66-.08,15.32,0,22.97,.02,1.71-.77,3.63,.93,5.12,.25,.22,0,.96,.04,1.46,.14,1.89-2.36,3.78,0,5.67v18.98c0,2.16-.33,4.39,.06,6.48,1.87,9.99,.68,20.05,.89,30.07,.22,10.15,.04,20.31,.06,30.47,0,1.3-.31,2.92,.33,3.82,.75,1.04-.7,2.02,.54,3.07,.66,.56,0,2.54,.15,3.85,.13,1.07-1.66,1.98-.21,3.1-1.5,1.14-.64,2.76-.81,4.16-.28,2.37,.42,4.77-.94,7.12-.93,1.61,1.08,3.24,.92,5.03-.94,.12-1.93-.28-3.01,.43-.09,1.38,1.34,2.25,1.49,3.57,.54,0,1.03,0,1.44-.27,.26,.91-.37,1.81,.68,2.19,.67-.69,.58-1.33-.68-2.19,.21-.74,0-1.61-.9-2.2,.29-.54,1.11-.72,.98-1.52,.28,.12,.77,.18,.81,.36,.16,.62,.17,1.27,.25,2.03,1.08,.6,2.14,1.49,3.53,1.7,.47,.97,.93,1.93,1.4,2.9-.03,1.46-2.1,1.62-1.99,3.26-.14,.78,.12,1.45,.8,2.08,.49,.45-.09,1.76,1.26,1.65,1.33,.07,.72-1.19,1.16-1.75,.4-.53,1.64,.19,1.6-.99-.63-.41-1.44-.06-1.82-.78v-2.47Zm170.7,1.28c3.35-3.33,3.5-3.81,2.37-7.3-.3,2.79-3.04,3.6-4.13,5.64,.58,.54,1.05,.98,1.76,1.66Zm-159.54,7.94c-.95,2.52,1.16,3.39,2.38,4.77,.38-1.6,2.1-2.79,1.21-4.79-1.17-.35-2.37-.37-3.59,.03Zm-7.24-5.5c-1.56,1-.27,2.55-1.95,3.59,.09-.08-.82-.76-.79,.36,.91,.47,1.8,.52,2.75-.08v-3.87Z"/><path class="cls-1" d="M550.48,548.48c-1.7,.68-1.37,2.57-2.49,4.08h-3.79c.64,.72,.95,1.06,1.31,1.47,.19,1.6-2.14,2.48-.77,4.44-1.35-.27-1.66-1.38-2.6-1-.73,.37-.77,.95-.47,1.73,.48,.17,1.06,.38,1.72,.62-.31,.5-.6,.98-.91,1.48,.43,.97,.86,1.95,1.4,3.19,3.05,0,6.12-1.63,9.27-.86,.87,1.07-.62,3,2.3,3.36,.4-.2,1.52-.78,2.68-1.38,.43,.26,.29,.78,.36,1.26,.21,1.49-1.77,2.43-1.01,4-.24,1.12-2.19-.01-2,1.61h-1c-.12-.28-.23-.57-.35-.85,.08,2.46-3.28,2.26-3.73,4.35,1.12,.8,2.13,.37,3.07,.5v1.8c-3.41-.48-6.05,4.47-9.82,1.18-1.21,.11-1.89,1.47-3.2,.96-.46-.79,1.46-.89,.63-1.86-1.2,0-2.44-.41-3.77,.46,1.06,.54,1.41,1.78,3.14,1.39q-1.93,1.31-4.36,.16c-.84,.49-1.68,.97-2.69,1.55,8.23,.72,10.1,.62,12.68-.65,1.19-.51,1.45,1.15,2.59,1.05,.9-.08,1.99-.48,2.8,.42-7.49,7.57-9.36,8.48-13.57,6.5-.89,1.94-3.16,1.81-4.38,3.32-2.6-1.09-4.99-2.3-7.29,0-2.49-1.37-5.13-2.02-7.05-4.12-.92,.37-1.8,1.07-3.1,.77-2.07-1.39-2.87-4.33-5.83-5.28,1.34-1.19,3.26-.08,4.03-1.73,3.42,2.32,6.66-1.18,10.04-.02-.64-.43,.41-.01,.04-.57-.09-.14-.23-.34-.35-.34-3.66-.02-7.32-.01-11.23-.01v-7.11c4.32,2,8.55,1.3,12.88-.39-1.51-.88-3.02-.49-4.45-.45-1.5,.04-2.45-1.8-4.06-1.03-1.57-1.33-3.25-2.56-2.85-5.19-1.56,2.02,.54,4.76-2.24,5.94-1.94-2.88-1.3-7.48-5.51-9.2,.33-.36,.65-.71,.95-1.05-.31-.34-.62-.69-.94-1.03,.61-.61,1.2-1.2,1.88-1.88-2.55-2.33,.42-4.62,.12-7.12,.18-.97,2.17,.17,1.97-1.45,1.78-.2,2.86,.66,2.95,2.36,.07,1.31,.65,1.99,1.78,2.51,.61-1.27,.09-2.6-.1-3.78,1.33-.32,2.49,.45,3.32-.67-1.04-.69-2.02-.79-3.32,.67-.21,.02-.46-.35-.63-.8-.67-1.76-1.33-3.53-2-5.29,3.83-.63,7.14-2.9,11.34-3.19-.58-.53-.83-.75-1.11-1.01-.07-.9,.83-1.15,1.22-1.76h3.1c.69,.76,1.46,1.61,2.5,2.76v4.08h6.51c.38-1.08,1.78-.53,2.35-1.31,.83-1.93-1.72-3.18-.91-5.1,.97-1.3,2.55-1.72,3.96-2.5,2.28,1.56,5.27,2.02,7.71,4.8-2.57,.14-4.47,.25-6.35,.35-.42,1.51-1.9,2.66-1.15,4.86,.99-.43,1.55-1.86,2.31-1.87,1.51-.02,1.74-1.43,3.75-1.99h3.35c.52,.31,.56,1.06,.34,1.27-.77,.75-1.14,1.55-.96,2.61Zm-4,35.97c-.48-.09-.78,.13-.89,.59-.02,.08,.22,.31,.29,.29,.46-.1,.68-.41,.6-.89,.48,.09,.78-.13,.88-.59,.02-.08-.22-.31-.29-.29-.46,.1-.68,.41-.6,.89Zm-16.98-19.99c.09-.48-.13-.78-.59-.89-.08-.02-.31,.22-.29,.29,.1,.46,.41,.68,2.82,1.19-.18-.21-.47-.59-.51-.57-.44,.27-1.53-.6-1.33,.42,.16,.81,1.15,.77-.09-.45Zm18.53,9.83c-1.19,.34-2.08-.29-2.46,.76,.69,.67,1.33,.58,1.93-.6,.48,.09,.78-.13,.89-.59,.02-.08-.22-.31-.29-.29-.46,.1-.68,.41-.05,.73Zm1.73-9.7c1.02,.6,.15,2.28,1.48,2.89,.24-1.22,.55-2.12-.22-2.99-.4,.03-.83,.07-.55,2.98-.48-.09-.78,.13-.89,.59-.02,.08,.22,.31,.29,.29,.46-.1,.68-.41-.12-3.76Zm-8.23,1.83c-.64,.05-1.24,.1-1.72,.13-.45,.78-.45,1.34,.16,1.88,.38-.03,.81-.07,1.41-.12,.05-.66,.1-1.26,.69-3.79-.2,.19-.58,.48-.56,.52,.27,.44-.6,1.53,.42,1.33,.81-.16,.77-1.15-.41,.05Zm-11.03-10.95c1.02,.15,1.88-.12,2.51-.99,.85,.4,.11,1.63,1.17,2.03,1.38-.09,2.04-1.04,2.38-2.37-1.24-.6-2.24-1.36-2.67-2.66-1.49-.39-2.49,.32-3.35,1.45,.3,.33,.6,.67,.9,1-.24,.54-1.1,.72-.9,2.02-1.74-1.27-2.41-1.36-5.02-1.11-.38,.72-1.74,1.14-.75,2.39,2.22,.97,3.64-1.62,5.71-1.78Zm4.18,19.71c-.42-1.69,.36-2.86-.76-3.69-.69,1.04-.79,2.02,.57,2.96,1.17,.63,.68,2.06,1.41,2.92,.78,.04,1.58,.32,2.34-.15-.49-1.49,.06-3.07-.85-4.42,2.65-1.2,4.77,2.27,7.34-.1-1.85-3.3-5.3-2.25-8.02-3.38-.54,1.97,.26,3.68-.65,5.13-.58,0-1.08,0-1.39,.73Zm4.79,11.78c.3-1.47-.17-2.6-1.57-3.53-5.3,.34-10.89-.89-16.33,1.38-.33,1.54,.14,2.77,1.49,3.58h14.97c.52-.51,.99-.98,1.44-1.44Zm-14.14-33.35c1.43-1.46,4.23-.52,4.74-3.15h6.12c-.06-.79,1.33-.72,1.08-1.73-1.03-.65-1.58,0-2.14,.6-2.6-1.87-5.66-.21-8.35-1.05-.82-1.18,.34-2.68-1.24-4.28-.99,2.23-3.13,1.22-4.94,1.56v1.5c1.07,1.19,2.89-.61,3.81,1.5h-7.47c2.01,1.47,3.71,.52,5.14,1.08,1.6,.78,1.25,3,3.25,3.96Zm7.64,5.9c.76,2.04,.69,4.29,2.07,5.94,1.48,.36,2.55-.26,3.33-1.36-.9-2.53-3.19-3.43-5.4-4.58Zm-6.03,2.95c.92-.64,1.27-1.65,2.28-1.81,.23,.65,.43,1.23,.62,1.79,.57-.03,1.08,.22,1.51-.37,.66-1.42-.79-1.81-1.26-2.41h-4.4c-.63,1.46,.54,1.88,1.25,2.79Zm-.55,8.66c1.83-.07,3.44,.51,5.21,1.24-.28-1.2,.24-2.06-.67-2.97-1.4,.41-2.76,1.51-4.54,1.73Zm-3.58-9.83c-1.01-.9,.66-2.1-1.11-2.86-1.08-.07-1.47,1-2.31,1.62,.93,.34,1.16,1.63,3.42,1.24Zm-10.42-1.89c.04-1.36,.5-2.64-.44-4.16-.36,1.66-1.06,2.51-2.43,2.71,.73,.56,1.07,1.67,2.87,1.45Zm9.17,5.27c-1.37-.17-2.7-.52-4.39,.39,1.78-.2,2.35,2.01,3.78,1.37,.77-.48,.5-1.01,.61-1.76Zm15.95-5.66c.98,.75,1.97,.74,3.14-.11-.96-.35-1.18-1.64-2.14-1.48-1.14,.24-1.03,.91-.99,1.59Zm-9.11,16.91c.91,.62,1.25,1.77,2.61,1.52,.57-.46,.64-1.03,.32-1.66-.88-.51-1.76-.49-2.93,.14Zm12.25-22.79c.87,.54,1.75,.48,2.78-.03-.6-.9-1.15-1.76-2.41-1.63-.61,.45-.66,1.02-.37,1.66Zm7.55,14.29c-.67,.1-1.2-.17-1.59,.45-.27,.56-.2,1.12,.37,1.59,1.28,.12,1.8-.37,1.21-2.04Zm6.29,1.51c-1.01-.76-2-.76-3.06,.02,.08,.44,.15,.89,.23,1.33,.59-1.35,2.2-.31,2.83-1.35Zm-5.19,2.98c-1.25-.38-2.52-.84-4.11,.16,1.69,.52,2.91,.54,4.11-.16Zm-8.61-30.71c.87-.05,1.87,.72,2.84-.27-1.1-.62-1.98-.62-2.84,.27Zm.3,1.27c-.73,.68-.73,1.34,0,2.02,.73-.68,.73-1.34,0-2.02Zm-4.57,9.5c.91,.65,1.54,.94,1.96-.15-.58-.54-1.14-.51-1.96,.15Zm-10.84,11.99c-.91-.65-1.54-.94-1.96,.15,.58,.54,1.14,.51,1.96-.15Zm-9.57-17.48c-.47,.33-.47,.66,0,.99,.47-.33,.47-.66,0-.99Zm24.48,9.49c.33,.47,.66,.47,.99,0-.33-.47-.66-.47-.99,0Z"/><path class="cls-1" d="M517.33,369.27c9.22-.74,9.65-1.73,10.86-1.69,5.15,.17,10.3,.01,15.46,.1,1.88,.03,3.54,1.28,5.58,1.03,1.71-.21,3.38-.06,5.13,.81,1.33,.66,3.26,.18,4.92,.12,2.1-.07,4.17-.09,5.96,1.28,.35,1.12,.57,2.22-.59,3.05,.37,.79,.74,1.59,1.13,2.42,3.38,.57,6.73,1.85,10.04,1.23,.84,.48,.58,1.03,.65,1.49-.31,.47-.81,.42-1.26,.56-1.9,.56-3.22-1.22-5.08-1.1-1.68,.1-3.63,.82-5.11-.85-.15-.17-.63-.07-.95-.07-2.83,0-5.7,.33-8.46-.1-2.52-.4-4.98-.95-7.58-.93-10.64,.07-21.28,.2-31.91-.03-6.4-.14-12.63,1.81-19.04,1.06-2.96,1.9-6.68,.07-9.67,1.95-.42,.26-1.31,.27-1.87-.53,.5-.36,1.02-.74,2-1.46h5.61c1.6-2.3-1.38-1.49-1.48-2.65,.56-.21,1.14-.42,1.81-.67-.54-1.48-2.2,.11-2.83-1.1,.26-.31,.54-.65,.84-1-.27-.98-1.56-.15-1.91-1.03,2.82-1.24,5.75-1.64,8.83-1.56,2.37,.06,4.89,.72,7.08-.92,.21-.16,.78-.16,.96,0,1.99,1.79,3.94-.06,5.88-.11,2.19-.06,4.63,1.08,6.61-.81,1.26,1.79,2.39,.37,3.63-.07,1.02-.36,1.87,.23-5.22,1.59-8.2,1.77-6.41,2.9-7.67,4.38,1.66,0,2.99-.05,4.31,.02,1.15,.06,2.41-.36,4.36,.98-2.26,0-3.58-.17-4.84,.05-1.25,.22-2.76-.89-3.87,.74h13.62c.69-1.25-.18-1.68-.71-2.27,.31-.35,.63-.7,.93-1.04-.3-.35-.6-.69-.87-1,.32-.39,.59-.72,1.05-1.3-4.89,0-9.51,0-6.31-.55Z"/><path class="cls-1" d="M527.5,666.37c-1.53,.92-2.65,2.33-4.4,3.07-2.99,1.26-6.03,.77-8.98,.96-13.41-5.98-15.02-15.83-9.91-24.88,5.1-4.65,10.48-6.06,17-4.83,2.48,1.47,5.78,2.95,7.84,5.84,1.99,2.78,2.8,6.14,3.18,9.61,0,1.26-1.17,2.38-.76,3.96,.16,.63,0,1.35-.97,1.27,0-2.14-.03-4.28,0-6.43,.03-2.28-.74-4.11-3.48-6.25,1.59,4.32,1.61,7.77,1.43,11.23-1.24,.95-.95,3.18-2.95,3.45-.48-1.41,1.18-2.18,1.03-3.56-.14-1.3-.03-2.64-.03-3.97-1.4-.14-.3-3.37-2.74-2.24-1.74,2.82,3.28,6.2-.91,8.77-2.05,0-4.19,0-6.34,.02-.15-.98-.86-1.46-1.64-1.9-.53,.51-.49,1.05-.04,1.79,.49,.04,1.08,.08,1.67,.11,.63,2.57,3.26,1.65,4.69,2.66,1.44-.63,2.58-1.84,4.29-1.67-.76,2.78-3.46,3.12-5.5,3.84-2.03,.71-4.46,.36-6.27-1.2-.73-.63-1.42-.65-3.18-.94-.78-.09-.49,.29-.45,.26,.44-.27,1.53,.6,1.33-.42-.16-.81-1.15-.77-.88,.15,.97,.79,.97,1.28,.97,1.54,.32,1.05,1.13,.67,1.69,.92,5.89,2.6,6.01,2.6,11.46-.85,.94-.6,1.9-.14,2.84-.31Zm-17.98-16.98c1.66-.66,3.32-1.32,5.03-2.01,1.34,.91,3.11,1.22,4.16,2.69,.46,.64,1.2,.2,1.63-.23,.34,1.19-.29,2.08,.76,2.46,.67-.69,.58-1.33-.59-1.92-.66-1.73-2.36-2.54-3.36-3.92q-4.41-.08-7.63,1.47c0,.49,0,.97-.6,3.38,.21-.18,.59-.47,.57-.51-.27-.44,.6-1.53-.42-1.33-.81,.16-.77,1.15,.45-.09Zm14.92-3.41c-.19-.2-.48-.58-.52-.56-.44,.27-1.53-.6-1.33,.42,.16,.81,1.15,.77-.09-.22v-1.72c-8.92-2.5-8.05-2.16-13.87,1.34,4.64-.77,9.3-1.9,15.8,.74Zm-1.97,10.69c-2.08-.46-3.2-1.67-3.98-3.34-1.08-2.33-3.2-3.27-4.62-3.8-1.23,.63-1.96,1.01-3.21,1.66,1.71,1.09,2.06,2.26,1.84,3.63,2.19,2.18,4.39,4.37,6.56,6.54,1.51,.39,2.54-.3,3.41-1.48v-3.21Zm-14.92-8.82c-.89-.59-1.53-.9-1.96,.33,.66,.21,1.22,.49,1.96-.33Z"/><path class="cls-1" d="M550.2,667.59c.67,0,5.61-2.22,6.27-2.22,1.73-2.46,4.67-1.15-1.05,2.55-2.76,1.74-10.24,1.74-13.43,.6-2.06-.74-2.87-2.55-4.5-3.52,0-2.89-.05-5.7,.02-8.5,.05-2.09-1.49-7.34-1.23-9.56,.14-1.21,.74-.92,1.22-.18,.99-.08,.92,1.25,1.01,1.92,.18,1.24-.51,2.61,.5,3.71,.54-.03,1.07,.12,1.52-.64-.24-1.58,.44-3.48-1.18-5.56,2.02,.49,3.64-.25,5.15,.59,0,4.46,0,8.78,0,13.1,1.17,.91,1,2.77,2.52,3.48,1.87,.02,3.72,.12,5.56-.91,1.03-.58,.99-1,.7-1.83-2.24,1.16-3.91,.1-6.18-.15-.53-.85-.6-1.26-.6-2.09,1.72-.56,2.99,2.18,4,1.35,3.25-4.45,.77-8.22,.87-11.98-.48-.46-.88-1.13-1.43-1.3-.75-.22-1.62-.06-2.43-.06v-3h1c1.22-.21,1.63-1.46,2.65-2.03,2.96,.17,5.96,.19,8.75-1.2,.56,1.78,2.12,3.02,1.51,4.8-.62,.72-1.32,.31-1.87,.45-.53-1.08-1.08-2.11-1.56-2.99-2.22-.17-3.6,1.53-5.98,1.03,.85,1.69,1.39,2.77,2.11,4.21,.38-1.68,.86-2.67,2.1-3.19,.27,.81,.46,1.38,.44,1.33,1.7,1.66,1.72-.77,2.88-.38-.05,6.19-.05,12.39-.05,18.44-1.62,2.61-1.65,1.89-3,1.53,0-.67,.22-1.45,.28-2.21,1.24-2.09,1.53-17.08-.79-19.09,0,3.53,.03,15.76-.02,18.91-.21,.6-.06,1.17-.71,1.66-.31,.46,0,.28-.75,.72-3.7-.09-7.08,1.41-10.76,.69-.66-1.1-1.24-2.15-3.18-1.44,.67,1.29,1.24,2.3,2.58,2.54,1.01,.35,.96,.31,1.61,.18m-4.39-9.02v-4.9q-2.5,2.45,0,4.9Z"/><path class="cls-1" d="M489.65,391.58c1.13,0,1.96,.26,2.41-.04,2.51-1.7,5.32-2.29,8.19-1.83,2.25,.36,3.9-1.28,6.08-1.17,1.83,.09,3.86,.85,5.67-.74,.57-.5,1.91-.15,2.89-.15,5.82,0,11.63-.04,17.45,.03,1.08,.01,2.36-.58,3.24,.57,.7,.91,1.5-1.47,2.12,.11,3.91-1.39,8.01-.97,11.92-.58,5.78,.58,11.69,.65,17.28,2.72,1.16,.43,2.61,.06,3.9,.06,.77,.73,1.47,1.4,2.17,2.05,.36-.33,.72-.66,1.26-1.14,1.26,.8,2.73,1.25,4.54,1.41-.55,.5-.79,.71-.71,.64,.81,.83,1.64,1.69,3.03,3.13-.45,0,.21,0,.87,0,1,.51-.18,2.27,1.51,2.17-.29,.76-.73,.75-1.19,.85-1.13,.25-1.8-.53-2.58-1.03-5.81-3.8-12.63-4.84-19.07-6.92-1.35-.44-2.97-.06-4.75-.06-.48-.62-1.08-1.4-1.69-2.19-1.83,1.89-3.94,1.65-5.53,.68-1.16-.71-2.71,.23-3.54-1.25-.18-.32-1.43-.47-1.81-.19-2.23,1.68-4.74,.85-7.1,.91-5.32,.13-10.65,.28-15.95-.03-4.6-.27-8.99,1.06-13.54,1.28-3.67,.18-7.34,1.52-11.13,1.92-2.3,.24-4.45,1.79-6.66,2.75-1.5-1.64,1.18-2.24,.73-3.93Z"/><path class="cls-1" d="M577.85,372.72c.67,.12,1.51-.27,2.12-1,8.84,2.18,18.12,2.82,26.22,7.66,.69-.72,1.52-1.37,2.58,.41-1.21,1.43-3.88,.3-4.13,1.94-.64,1.77,1.52,2.24,.63,3.57-1.05,.75-2.24,.02-3.41,.49-.24-.71-.44-1.28-.63-1.87-.69-.61-.6,.54-1.14,.59-4.69-2.54-10.28-1.41-15.15-3.72-1.62-.77-3.91-.12-5.86-.12q-1.46-1.8-1.81-3.75c-.74-.83-1.99,.29-2.81-.83,2.08-.25,2.01-2.29,3.4-3.39Z"/><path class="cls-1" d="M525.76,503.68c-1.91,3.93-4.11,8.64-6.25,13.05-.07,.14-.38,.8-.49,1.12-2.34-.32-4.54-.51-7.12-.51-.32-.13-1.52-1.47-1.27-2.86,2.31,.84,2.73,.44,4.91,.77,1.85-3.89,4.01-7.35,6.04-11.09,.89-1.64,2.66-5.29,3.69-7.15-.09,.27,1.2,5.49,3.07,5.29,5.94,.29,7.98-3.92,12.15-8.62,.84-1.49,1.45-2.17,2.66-4.41,.87-1.42,1.2-2.61,1.39-4.13,.37-2.69-.05-3.02,.28-3.5,.47,.03,3.5-.47,4.73-.6-1.68,3.91-3.01,9.19-4.98,12.97-.62,1.19-.76,1.36-1.39,2.18-1.62,2.08-9.98,12.19-15.79,9.12"/><path class="cls-1" d="M469.98,375.88c-2.05,1.31-1.14,2.94-1.48,4.23,2.76,1.94,5.25-.97,7.96-.37v1.58c-2.06,1.1-4.64-.75-6.46,1.26-.48-.41-.8-1.08-2.12-.84-.23,.52-.64,1.46-1.07,2.42-1.03-.87-1.37-1.16-1.74-1.47-.68,.64-1.38,1.3-2.04,1.93-1.26,.61-1.51-1.31-2.65-.97-.92,.09-.87,.76-.78,1.48-4.24,2.12-8.46,4.23-12.99,6.49-.19-2.2,1.21-2.78,3-3.34-.32-2.06,.67-4.31-.87-6.31,3.52-1.96,7.33-3.45,11.2-4.17,3.24-.6,6.07-3.06,10.03-1.92Z"/><path class="cls-1" d="M456.6,419.6c1.71,.05,3.57-.44,4.77,1.04,1.24-.09,1.48-1.07,2.2-1.51-1.19-.85-3.19-.92-2.94-3.56,4.23,1.18,8.24,2.85,12.62,3.2,.48,.27,.25,.82,.33,1.3,1.52,.26,3.01,0,4.48-.46,1.35,1.95,3.42,.46,5.25,1.25l1.21,1.21c-.39,.73-1.25,.76-1.68,.49-2.25-1.39-4.64-.81-7.43-1.02,1.07,2.07,2.84,2.65,4.25,2.97,3.2,.73,6.13,2.8,9.63,2.1,2.38,1.45,5.02,.9,7.82,1.02,.42,.37,.99,.87,1.95,1.71-5.47,.72-10.07-.38-14.77-1.35-3.68-.76-7.41-1.42-11-2.45-5.33-1.54-10.78-2.74-15.92-4.92-.47-.2-.95-.33-.75-1.01Z"/><path class="cls-1" d="M582.48,416.08c-4.56,.63-8.86,2.24-13.46,2.71-2.33,.24-4.7,.8-7.1,.81-2.41,0-4.58,1.64-7.08,1-5.08,2.03-10.38,.72-15.57,.95-5.32,.23-10.65,.05-15.98,.05-2.69-1.7-5.89-.54-8.72-2,3.78,0,7.56-.13,11.32,.04,3.53,.15,7.19-.85,10.98,1.03,.42,.07,.63-1.03,1.18-1.03,3.24,.01,6.42-.11,9.59-.98,2.12-.58,4.36,.32,6.64-.91,1.66-.9,4.18,.45,6-1.14,5.71,.33,10.76-2.33,16.15-3.69v1.15c-1.43,1.13-3.25,1.41-5.77,2.04,4.6,1.35,8.09-1.53,11.82-.03Z"/><path class="cls-1" d="M480.26,453.31c0-1.45,.3-2.84-.51-4.78,3.22,2.22,2.77,3.04,2.77,6.56-4.83,8.35-12.53,10.19-21.6,9.37-.84,3.13-1.68,6.23-3.35,9.03-1.49,2.49-2.34,5.12-2.06,8.13,.24,2.59,.17,4.59,.17,7.69-1.07-.63-1.96-2.06-2.25-3.22-.03-3.69-.66-5.72,.66-9.5,1.77-5.06,2.13-10.7,5.81-14.91,2.43,.22,3.15,1.03,5.06,.78,2.56-.33,3.47-.46,4.02-.64,3.5-1.42,5.68-2.05,7.94-3.84,1.74-.65,2.46-2.82,3.34-4.67Z"/><path class="cls-1" d="M577.46,659.38c.61,.12,1.32-.3,1.82,.31,.34,.68,.14,1.18-.32,1.74-.37,.45-.49,1.1-.72,1.67-1.74,1.44-3.85,1.08-5.87,1.37-1.76,.25-3.4,1.26-5.37,2.04-.91-1.21-.18-3.14-1.57-3.89,.19-1.33,1.22-1.73,2.04-2.81,0-3.58-.11-10.2-.11-14.11,.67,0,.68-.52,1.34-.52,.15,1.62,.46,6.55,1.77,8.07v-4.84c-.08-1.83,.47-3.78-1.12-5.02,1.2-2.64,3.64-2.91,5.44-3.02-.28,.47-.5,.97-.67,1.49-.98,2.99-.32,6.63-.75,9.44,4,.09,4.03,.15,7.2-1.58,.68-.37,1.26-.17,1.87-.31,0,.5,5.14-1.34,.73,1.16-3.85,3.35-6.57,.43-8.7,3.39v6.02c-.74,.31-1.41,.42-1.85,.8-.7,.61-1.3,.95-2.08,.22-.58-1.59,2.23-2.71,.69-4.32-.55-.4-1-.34-1.9,.11,.86,2.32-.64,4.21-1.65,6.06,.43,.56,.83,1.07,1.27,1.64,2.23-3.11,5.73-1.61,8.49-2.33v-2.78Z"/><path class="cls-1" d="M609.47,457.38c3.93-2.52,4.25-5.96,5.46-8.81,.43,.04,.75,.06,1.28,.11v6.6c-.95,.87-2.17,1.99-3.58,3.27h-3.6c-.51,.3-.63,.73-.61,1.25,.14,2.97-2.01,5.17-2.62,7.89-.88,3.93-2.12,5.97-3.52,11.51-.92,4.78-.56,3.09-.95,4.97-2.02,.57-1.46,4.33-4.94,4.38,2.41-7.6,4.42-15.01,7.13-22.15,2.72-7.19,4.49-14.69,7.46-22.47,1.41,4.8-1.63,8.47-1.5,13.44Z"/><path class="cls-1" d="M478.2,496.59c1.52,2.71,3.17,1.67,3.72,1.36,1.38-.54,10.24-10.22,7.87-5.79,.23,1.21-1.6,4.53-2.54,5.19,1.74,1.2,3.14,1.61,4.01,1.92,2.53-3,3.72-5.87,5.31-9.39,1.63-3.61,2.84-7.49,5.43-10.32,1.69-.13,1.79,.23,2.18,.88,.11,1.47-.2,2.27-1.33,2.04-2.86,6.67-6.23,13.63-9.05,20.19-1.37,.29-5.61-1.25-7.84-1.94-1.39-.43,.44-2.36,.15-2.69-2.19,2.09-3.68,2.64-6.13,2.23-1.1-.64-2.17-2.3-1.77-3.69Z"/><path class="cls-1" d="M441.85,382.02c2.32-2.77,4.66-3.47,6.78-4.32,6.45-2.58,12.84-5.22,19.88-6.27,3.88-.58,7.98-.89,11.82-2.6,2.29-1.02,5.32-.7,8-.99,4.31-.47,8.59-1.93,13.02-1.18,1.38,.23,2.37-.72,3.27-1.17,.99,.55,1.03,1.13,.6,2.17-4.37-.74-8.7,.87-13.21,1.12-4.18,.23-8.3,1.49-12.44,2.35-4.27,.89-8.69,1.42-12.75,2.92-3.94,1.46-8.03,2.36-12.01,3.39-4.24,1.1-7.81,3.9-12.98,4.58Z"/><path class="cls-1" d="M465.73,386.29c5.14-2.58,10.33-3.23,15.73-3.74v1.81c-4.19,.79-8.2,1.93-12.2,3.19-3.63,1.14-7.01,3.22-11.96,3.85-.59,.59-2.58,1.63-3.56,3.05-1.16,1.68-2.37,2.85-4.14,3.64v1.95c-.76,1.08-1.76,.49-2.81,.44-.87-3.24,.56-5.85,3.02-7.41,2.7-1.7,5.26-3.75,8.58-4.54,1.85-.44,3.55-1.78,5.36-2.63,.99-.47,1.5-.14,1.97,.41Z"/><path class="cls-1" d="M467.56,408.61c.5,0,1.4-.1,1.43,.02,.81,3.15,5.65,2.19,5.86,6.1,3.1-.88,5.54,.8,7.93,2.04,1.49-1.17,.3-2.66,1.04-4.02,.2-.35,.82-.26,1.21-.11,3,1.15,5.98,2.38,9.75,3.91,.56,.04,2.31-.33,3.39,.35,2.27,1.44,5.47-.33,7.53,2.83-4.93-.68-9.64,1.02-14.18-1.12-4.3,.61-8.39-1.09-12.84-1.68-.02-.04-.25-.6-.48-1.17-1.39-.61-2.42,.27-3.51,.85-2.64-.88-5.07-2.46-8.61-1.85,1.6-1.82,3.31-.53,4.38-1.56,.21-.89,.11-1.39-1.03-1.65-1.37-.32-2.11-1.41-1.87-2.94Z"/><path class="cls-1" d="M602.82,447.47c.68,.68,1.03,1.03,1.42,1.42-1.93,5.28-3.93,10.56-5.79,15.88-2.19,6.27-4.2,12.6-6.04,18.98-.8,2.78-2.97,5.31-5.93,7.17,4.94-14.99,10.83-29.03,16.34-43.45Z"/><path class="cls-1" d="M553.59,424.03c-3.61,1.95-7.2,1.55-10.72,1.56-6.32,.01-12.65-.27-18.95,.07-7.9,.43-15.65-1.64-23.53-1.07-3.25-1.37-6.69-1.1-10.06-.94-1.66,.08-2.22-1.72-4.02-1.13,.62-.99,1.2-1.08,1.6-.9,2.6,1.17,5.41,.59,8.07,1.04,9.32,1.6,18.69,.75,28.03,.9,9.48,.15,18.96,.03,28.43,.05,.29,0,.58,.2,1.15,.42Z"/><path class="cls-1" d="M505.04,504.04c-2.22,0-4.06-.41-6.06-.56-1.21-1.54-1.61-2.1-1.86-4.05,2.02,0,3.57,.51,5.49-.24,1.53-2.99,3.54-6.16,4.84-9.6,2.58-6.81,2.86-7.58,5.87-9.22,.45,4.6-2.46,7.95-3.89,11.69-1.43,3.72-2.1,8.32-4.39,11.97Z"/><path class="cls-1" d="M564.06,496.2c-4.36,5.88-5.82,5.23-9.88,6.2-1.55,0-1.15,.14-3.69,.14-1.04-.12-2.73-.46-3.61-1.03-.96-.64-1.4-1.48-1.15-1.44,6.62,.81,12.45-3.34,15.75-7.77,1.96-2.62,3.54-5.46,5.23-8.25,1.41-2.33,4.49-3.12,6.95-3.65,.92,.55,.78,1.08,.83,1.83-1.78,.24-3.46,.95-4.59,1.45-2.22,1.94-2.09,4.37-3.21,6.24"/><path class="cls-1" d="M617.67,384.36c3.42,1.5,5.66,3.81,7.63,6.95v5.9c-.34,.59-.89,.36-1.55,.44-.51,1.61-.72,3.46-1.92,4.89q-.3-2.65,.57-4.4c-2.09-.45-2.2-2.87-3.96-3.91v-4.23c-1.61-.41-.63,1.08-1.05,1.24-2.14,1.19-3.03-.45-4.32-1.38-1.08-.78-2.47-1.12-3.66-1.63,.04-.53,.07-.85,.12-1.48,2.08,1,4.05,1.95,6.38,3.07,.57-1.74,1.12-3.43,1.77-5.46Z"/><path class="cls-1" d="M577.68,696.28c-3.44-.5-6.39,1.09-9.59,1.04-2.42-.03-4.54,1.43-7.09,1.1-2.17-.28-4.52-.58-6.6,.87-.45,.31-1.3,.05-1.97,.05-11.48,0-22.97,0-34.45,0-.47,0-1.02,.2-1.36-.4,.55-1.28,1.69-.53,2.49-.55,4.99-.09,10-.3,14.97,.01,7.58,.48,15.08-.6,22.53-1.3,5.56-.52,11.36-.64,16.78-2.68,1.35-.51,3.15-.32,4.28,1.86Z"/><path class="cls-1" d="M608.46,492.46c-1.1,.71-.64,.82-4.57,1.74-.35-.14-2.27-.35-2.49-1.46-2.02,2.03-2.26,2.27-4,3.3-2.52,.67-4.71,.51-6.99,.51v-2c2.49-1.17,4.12,.78,8.58-2.73,.85-.87,.74-1.43,1.8-2.15,1.24,.49,1.69,2.12,4.25,1.25,3.83-.49,3.41-4.22,4.49-4.5,1.64-.43,2.03,.75,3.28-.11,0-1.67,.58-3.14,.58-4.75,.5,0,.56,0,1.06,0,2.53,1.33,.83,5.02,.79,5.98-.7,1.09-.12-1.18-.06,.07-.53,1.11-1.73,.59-2.86,1.55"/><path class="cls-1" d="M562.57,479.01c-2.07,.85-3.46,2.05-4.35,4.17-1.15,2.72-2.89,5.08-2.89,8.33,0,1.66-1.48,3.31-2.31,4.99h-2.04c-1.05-.87-.69-2.23-.44-3.15,1.81-6.49,3.04-13.4,9.78-16.92,1.19,.51,1.92,1.08,2.25,2.58Z"/><path class="cls-1" d="M532.72,491.41c-1.04,2.76-2.06,6.65-4.11,7.2-1.17-.93-2.74-2.17-.69-5.78,1.7-3.78,2.39-4.56,4.07-8.34,.9-2.02,2.5-3.33,4.07-5.01,3.25,.17,4.2,1.92,3,4.7-1.59-3.37-3.03-1.24-4.64,2.16"/><path class="cls-1" d="M490.16,473.55c1.34-.07,1.73,.97,2.48,1.72-.93,3.53-1.45,7.24-3.68,10.36-2.07,2.9-2.9,5.54-5.76,7.91-.57,.36-.9,.25-1.36-.21,2.72-6.48,5.47-13.01,8.32-19.78Z"/><path class="cls-1" d="M575.22,450.78c2.79-.22,3.24,1.38,3.86,2.96q.17,1.93-.21,3.07c-.92,2.78-2.28,5.16-4.34,7.19-2.01,1.99-3.59,3.5-5.67,5.41-.78,.71-3.58,1.88-4.05,2.74-1.44,0-.59,.3-2.83,.3,1.27-.99,1.89-1.5,2.89-2.02,1.55-.8,3.67-3.21,4.67-4.61,2.31-3.21,4.89-4.62,6.18-8.76,.72-2.32,.73-3.95-.49-6.29Z"/><path class="cls-1" d="M482.43,473.32v3.76c-.74,1.73-2.49,1.25-3.67,1.72-2.87,4.37-4.17,8.12-4.29,12.32-.67,.42-.92,1.41-1.95,1.42-.94,.01-1.19-.99-1.86-1.41,4.07-13.2,5.1-14.81,11.77-17.81Z"/><path class="cls-1" d="M441.58,401.58c-1.9,.18-2.48-.77-2.99-1.77-.15-.86,.57-1.15,1.12-1.86-1.64-1.98-1.01-4.45-1.14-6.82,1.26-.53,.62-2.4,1.81-2.73,2.1-.58,2.12-3.43,4.35-3.75,.14-.02,.3,.06,.51,.11,.67,1.02-1.39,1.26-.7,2.43,.47,.79-.37,1.43-1.26,2.25,.9,.62,1.72,1.18,2.28,1.57,.11,1.55-.54,1.8-1.49,1.61q-.69,2.53-2.48,4.53v4.44Z"/><path class="cls-1" d="M475.37,449.52c-2.3-3.05-6.76,1.78-9.24,5.73-2.66,4.25-.95,2.96-3.5,3.25-1.03-1.04-1.32-.83-.61-1.92,2.64-4.05,5.35-7.98,10.02-10.02,5.26-1.43,3.91,.6,4.1,.55"/><path class="cls-1" d="M467.56,397.13c.23-.23,.47-.47,.85-.85-.39-1.25-1.51-1.59-2.69-1.95,.72-1.95,2.65-2.43,4.77-3.75-.05,.02,.02,.71,.44,.89,1.29,.04,.01-1.52,1.21-1.63,.17,.14,.5,.42,1.02,.84,.49-.78,1.01-1.59,1.29-2.04h3.64c.82,1.15,.4,2.42,.33,3.79-2.32,.29-3.91,2.55-6.45,2.28q-1.51,2.87-4.42,2.42Z"/><path class="cls-1" d="M613.28,481.55c-1.31,.03-1.48,2.1-3.02,1.99-.15-.01-.3-.07-.61-.16,2.24-4.77,3.29-9.86,2.65-15.01-.35-2.84-1.19-5.6-.69-8.5,1.51-1.03,1.92,.6,2.86,1.21-.44,6.78,.86,13.7-1.19,20.47Z"/><path class="cls-1" d="M517.17,495.27c-.74,1.02-1.36,1.96-2.9,.63,3.43-4.96,5.93-10.37,8.07-15.98-.89-.53-.93-1.51-.82-2.5,.08-.72-1.24-1-.73-1.88,2.02-.11,2.48,1.68,3.69,2.44,0,1.98,.23,2.59,.23,5.03"/><path class="cls-1" d="M475.55,400.62c0-.83,0-1.66,0-2.45,1.86-1.16,3.71-2.31,5.55-3.46,.57,1.65,2.42,.38,3.65,1.6-1.63,2.21-3.29,4.47-4.95,6.72-1.67,2.2,2,4.3,.21,6.66-2.82-2.1-3.2-4.31-1.46-8.14-.02-.97-1.11-1.13-1.36-1.88-.69,.21-.84,1.13-1.65,.96Z"/><path class="cls-1" d="M487.54,388.72c0-.59,0-1.09,0-1.58-.36-.88-1.63-.09-2.04-1.34,1.62-.12,3.18-.72,4.49,.8,1.66-1.29,3.43-2.12,5.63-1.99,1.56,.09,3.15,.32,4.63-.88,.6-.49,2.21-.48,2.87,0,1.99,1.42,4.37,.52,6.44,1.5-7.52,.21-14.6,2.94-22.03,3.51Z"/><path class="cls-1" d="M588.57,639.21c-1.48,.61-2.3-1.63-4.92-2.27-5.76,.14-10.66,3.06-15.92,3.66-.41,1.16-.36,2.08,.45,3.15,.51,.67,1.09,2.19-.72,2.64-1.04,.1-1.14-1.1-1.9-1.27v-5.37c.74-.48,1.03-1.48,2.03-1.34,3.26,.44,6.14-.84,9.04-2,3.05-1.22,6.22-1.16,9.44-.89,.75,.44,2.53,2.69,2.48,3.7Z"/><path class="cls-1" d="M564.45,497.55c1.38-.02,2.21,1.11,3.5,1.88,5.3-.72,8.67-4.15,11.98-8.02,.83,1.3,.45,2.54,.42,3.73-2.32,2.29-4.43,4.82-8.33,6.39h-4.1c-1.7-1.72-2.45-2.94-3.47-3.96Z"/><path class="cls-1" d="M576.11,487.54c-1.46,1.6-1.55,2.85-1.25,4.94-2.34,1.1-2.76,.84-4.31-.34,0-.97,.3-1.68,.9-3.01,2.51-2.66,4.79-5.66,8.58-5.79,1.7-1.01,1.11-3.38,2.56-3.25,.52,3.39,.14,4.21-3.14,5.96"/><path class="cls-1" d="M579.45,388.63c1.06,.18,1.9-.2,2.57-1,2.48,.82,4.95,1.64,7.4,2.45,.09,.5-.2,1.05,.65,1.56h3.66c1.11,.53,.24,1.55,1.22,1.85,.25-.21,.59-.5,.94-.79,.97,.28,.15,1.56,1.02,1.91,.35-.32,.7-.64,1.04-.95,.49,.33,.51,.81,.45,1.49-.85,1.17-2.99-.31-3.65,1.54-1.03-.43-2.38-.57-2.93-1.31-1.54-2.07-4-2.48-5.92-3.82-1.85-1.3-3.95-1.73-6.1-2.11-.16-.03-.24-.53-.36-.82Z"/><path class="cls-1" d="M579.35,381.64c.06,.74,.08,1.06,.11,1.39-.23,.2-.42,.51-.68,.6-2.18,.77-3.9-1.13-6.05-1.07-1.85,.06-3.92,.84-5.64-.74-.28-.26-.94-.21-1.4-.16-4.72,.49-9.19-1.83-14.13-1.53,.96-.49,1.88-1.24,2.89-1.41,1.22-.21,2.64-.46,3.58,.91,.11,.15,.64,.06,.96,.01,4.25-.63,8.29,1.62,12.51,.96,1.47-.23,2.19,1.24,3.58,1.08,1.3-.16,2.63-.03,4.27-.03Z"/><path class="cls-1" d="M513.28,379.28c1.12-.95,1.98-.58,2.76-.62,5.17-.27,10.32-.15,15.53-.79,6.18-.76,12.46,1.47,18.81,.92-3.3,1.05-28.49,1.25-37.1,.5Z"/><path class="cls-1" d="M599.43,389.62c-2.67,.12-5.26,.05-6.54-2.94-.24,.24-.47,.47-.71,.71-3.71-1.35-7.5-2.45-11.89-3.02,.76-1.03,2.29-.61,2.61-1.68,1.75,1.9,4.02,.48,6.16,1.09,.53,.5,1.22,1.16,1.89,1.8,1.45-1.57,2.7,.67,4.22,.14,1.28-.44,2.22,2,3.75,.81,.82,1.14,.39,2.15,.52,3.08Z"/><path class="cls-1" d="M482.72,384.74c-.13-1.86-.16-2.18-.19-2.7,9.5-1.6,19.08-2.6,29.57-3.58-1.25,1.42-2.7,1.11-3.07,2.18-2.97,0-6.28-.82-8.85,.21-3.16,1.26-6.4-.31-9.04,.95-2.71,1.29-5.71,.12-8.41,2.95Z"/><path class="cls-1" d="M548.48,643.39h-1c-1.1,.52-2.08,1.14-3.47,1.07-2.16-.12-4.4-.36-6.52,.2v2.73h-2.74v-5.97c1.55-.27,2.72,1.51,4.4,1.02,1.36-.4,2.96,.4,4.28-.51,1.52-1.05,3.13-.34,4.56-.51,.81,.63,.36,1.35,.49,1.97Z"/><path class="cls-1" d="M557.03,424.71c-.7-.76-1.11-1.21-1.55-1.68,.4-.18,.7-.43,.96-.4,4.9,.51,9.6-1.64,14.5-1.02,2.19-1.38,4.66-.9,7.04-1.01,.56-.59,1.05-1.32,2.07-.89,.49,.3,.4,.81,.4,1.58-7.78,.8-15.39,3-23.42,3.43Z"/><path class="cls-1" d="M463.18,491.76c-3.26,4.11-10.06,2.64-11.65,.22,2.91,1.06,4.51,.92,6.54,.42,3.12-1.28,4.8-3.8,6.02-6.86,.49,0,.98,0,1.46,0,0,1.16-.26,2.5-.26,3.67"/><path class="cls-1" d="M559.82,471.92c-1.61-1.18,10.18-19.42,13.39-18.97,1.37,3.05-4.49,10.28-6.56,12.73"/><path class="cls-1" d="M482.52,694.92c.1-.6-.18-1.17,.84-1.59,1.21,.7,2.88,.9,4.58,1.14,1.84,.26,3.65,1.19,5.57,.84,1.89-.35,3.28,1.14,5.07,1.05,1.82-.09,3.64-.02,5.45-.02,.59,.51,.67,1.08,.27,1.74-7.13-1.1-14.4-1.18-21.78-3.16Z"/><path class="cls-1" d="M454.96,448.27c-2.12,.67-.74,5.9-1.66,7.09-.98,.25-1.08-.64-1.54-1.09-1.13-3.46,1.28-5.61,2.18-8.34,1.5-.4,1.93-.11,3.5,.69,.32,0,2.18,1.63,.07,2.46"/><path class="cls-1" d="M590.44,494.53v2c-2.37,1.42-4.37,3.84-7.65,2.85-.48-.77-2.5-1.78-1.69-3.47,3.66,.5,6.98-1.34,9.49-3.9,1.25,1.57-.59,1.69-.15,2.52Z"/><path class="cls-1" d="M460.56,478.86c-.04,2.53,1.07,3.62-.74,5.81-3.57-2.33-2.36-4.61-1.2-9.01,.56-2.12,1.86-3.14,3.62-2.54,.97,.11,1.78,2.49,1,4.14-.22,.9-1.4-1.95-2.69,1.59Z"/><path class="cls-1" d="M585.62,370.14c-5.93,1.55-10.43-1.04-15.16-.49-2.66-1.83-5.68-.62-8.58-1.07-.5-.44-.58-1.01-.02-1.96,7.43,1.38,15.08,2.27,23.75,3.52Z"/><path class="cls-1" d="M616.42,380.64c-2.85-1.12-5.8-1.91-8.69-2.94-2.3-.82-4.16-3.11-7.03-1.81-.1-1.36,.8-1.6,1.24-2.3,3.93,1.58,8.24,2.28,11.78,4.88,.83,.61,2.47-.74,2.69,1.17v1Z"/><path class="cls-1" d="M558.47,384.64c-3.47,0-7,.36-10.41-.11-3.13-.42-6.22-1.13-9.43-1.2,3.25-1.07,6.58-.39,9.83-.73,3.44-.37,6.59,1.57,10.02,1.04v1Z"/><path class="cls-1" d="M515.38,504.74c-1,0-1.54,.92-3.9-.26-1.06-.66-2.15-1.89-2.98-2.72-.38-.88-1.25-1.22,.81-.67,2.81,.74,5.85,0,7.8-2.26,.58-.67,3.72-5.5,3.85-4.41"/><path class="cls-1" d="M585.49,468.84c2.27,1.75,1.26,3.3,.81,5.07-.99,3.9-3.64,5.26-4.66,6.17-2.02,0-2.51-.19-4.21-.75,1.82-1.21,2.42-.99,3.48-1.69,2.17-2.54,4.4-4.99,4.58-8.8Z"/><path class="cls-1" d="M613.42,396.63h1.52c1.08,.96-.23,3,1.64,3.69,1.55,.57,.23,2.48,1.35,3.3h1.48c-1.38,1.09-2.76,2.18-4.36,3.44-1.14-1.99-.69-3.82-.55-5.46,.15-1.86-1.25-3.22-1.08-4.98Z"/><path class="cls-1" d="M585.24,652.61c-.48-.62,1.12-2.41,1.5-3.07,1.21-2.1,2.93-6.86,.95-9.69-.85-1.21-.24-.65-.24-2.45,2.03,.27,1.73,2.53,3.01,3.5,.04,4.01-1.8,9-5.22,11.71Z"/><path class="cls-1" d="M462.73,399.62c-1.67,1.8-1.55,3.79-1.03,5.21,.62,1.69,1.2,3.11,.32,5.18-3.66-2.93-2.04-6.71-2.49-9.86,.32-.3,.43-.51,.56-.51,.65-.03,1.31-.02,2.65-.02Z"/><path class="cls-1" d="M478.2,496.59c-3.58,3.84-8.69,4.67-11.53-3.65,1.53,1.4,3.17,4.58,7.36,3.14,.78-.37,2.01-1.99,2.99-3.01,1.03,2.02,.79,2.19,1.17,3.53Z"/><path class="cls-1" d="M555.58,557.07c-.91,3.66-4.52,1.43-6,3.42-1.31-.1-1.66-1.45-2.61-1.97-.34,.3-.69,.6-1.01,.88-.58-.35-.44-.87-.47-1.35,.23-.2,.46-.56,.7-.57,3-.09,6.05,.3,8.95-.86,.06-.02,.23,.22,.44,.43Z"/><path class="cls-1" d="M509.59,384.39c3.66-1.49,6.45-.05,9.12-1.34,2.36-1.14,5.06-.22,7.61-.18-5.11,1.73-10.32,2.12-16.74,1.51Z"/><path class="cls-1" d="M606.87,475.57c.45-.54,.63-.84,.97-.84,.54,4.17-.77,7.37-2.83,9.72-.71,.6-1.56,.6-2.1,0"/><path class="cls-1" d="M558.47,384.64v-1c3.6-.56,6.92,1.73,10.37,.95,.65,.42,.63,.91,.62,1.4-.23,.49-.64,.85-1.13,.63-2.76-1.29-5.68-.94-8.57-.98-.68,0-1.37-.01-1.29-1Z"/><path class="cls-1" d="M579.99,470.5c.97-.84,5.32-3.43,2.43,2.31-2.41,3.83-3.82,5.13-5.77,4.13,.16-3.56,1.21-5.31,3.34-6.44Z"/><path class="cls-1" d="M605.43,410.61c-2.27,.57-4.54,1.13-7.16,1.78,.81-2.24,1.48-4.26,3.17-5.78h1c-.05,.91,.36,2-1.09,2.28,.96,1.25,2.12,.5,3.09,.72,.69-.03,1.02,.31,1,1Z"/><path class="cls-1" d="M577.46,659.38q-1.69-2.32-1.84-5.05c2.57,.44,7.06-.97,11.31-4.91,.97-.45-2.41,3.13-1.48,2.96-2.06,2.28-5.04,2.35-7.99,3.38v3.61Z"/><path class="cls-1" d="M512.52,546.48c-.28,.11-.76,.17-.8,.34-.35,1.36-.32,1.37,.63,3.34-.52,.6-1.22,.2-1.82,.31-.83,0-1.66,.01-2.49-.02-.12,0-.23-.23-.38-.4-.43-1.26,.1-1.76,1.5-1.55,.71-1.47,0-3.86,2.6-4.04,1.24,.28,.63,1.29,.77,2Z"/><path class="cls-1" d="M464.97,485.54c-3.31,4.4,2.24-5.47,.72-12.59,1-.05,2.34,1.88,2.34,4.15-.41,3.76-3.53,13.76-3.06,8.44Z"/><path class="cls-1" d="M613.37,401.15c-.33,.36-.65,.72-.91,1.01-.52,1.32,1.67,1.75,.8,3.15-.27,.46-.8,.27-1.33,.32-1.1-1.41-.13-3.12-.63-4.66-1.33-1.03-2.17-2.43-2.64-4.08q2.36,.47,4.71,4.26Z"/><path class="cls-1" d="M579.54,388.59c-3.36,.33-6.18-1.04-9.72-2.13,3.7-2.04,6.39,.73,9.21,.28,.8,.55,.16,1.3,.51,1.85Z"/><path class="cls-1" d="M467.73,409.49c-2.66-3.54-2.17-6.57-2.1-9.62,1.04-.08,1.29,.82,1.79,1.14,.7,2.01-.87,4.33,1.08,6.06-.21,.58-1.1,.74-.77,2.42Z"/><path class="cls-1" d="M570.26,479.94c-.48,.08-2.19,.64-2.59,.71,1.24-3.23,.39-4.76-2.26-7.83,.88,.42,2.91,2.82,5.14,3.01,0,1.41-.3,2.6-.3,4.11Z"/><path class="cls-1" d="M433.1,389.63c0-.79,.74-1.5,1.49-2.54,.79-.79,7.41-5.43,8.2-6.22,.96,0-3.99,3.76-3.2,3.76,0,.47,1.84-1.05,1.84-.33-1.88,.27-6.56,4.57-6.83,6.45-.71,0-1.02-1.12-1.49-1.12Z"/><path class="cls-1" d="M597.61,400.74h3.49c.51,.73,.46,1.3-.12,1.85-.35-.32-.7-.63-1.09-.99-.93,1.93-1.86,3.86-2.83,5.87-1.03-1.05-.78-1.9,0-3.1,.55-.85,.36-2.17,.55-3.63Z"/><path class="cls-1" d="M535.91,477.66c.16-1.97,1.16-5.53,2.56-6.87,1.25,.67,2.24,1.99,1.95,3.7-1.35-.18-2.78,3.34-4.51,3.18Z"/><path class="cls-1" d="M556.62,552.78c-.73,1.03-1.62,.58-2.63,.74-.55-1.11-1.12-2.28-1.65-3.35,.73-1.03,1.62-.58,2.63-.74,.55,1.11,1.12,2.28,1.65,3.35Z"/><path class="cls-1" d="M475.69,400.62c-.62,2.29-1.8,4.43-.91,6.94-2.17-.27-.05-2.82-2.76-2.16,1.23-1.83,1.53-3.34,1.82-4.78h1.85Z"/><path class="cls-1" d="M516.48,365.83c-2.56,1.24-4.41,.19-5.58,1.71-1.3-2.38-2.77,.9-4.14-.07-.27-.88,.7-.93,.94-1.63h8.78Z"/><path class="cls-1" d="M506.82,697.5h6.6v1.54c-2.3,1.01-3.98-.29-6.6-1.54Z"/><path class="cls-1" d="M616.42,380.64v-1c1.91,1.46,4.88,1.35,5.99,4-2.76,.53-4.2-1.58-5.99-3Z"/><path class="cls-1" d="M477.71,373.01c2.98,.3,5.6-2.38,9.56-.73-3.77,.22-6.45,2.1-9.56,.73Z"/><path class="cls-1" d="M589.86,415.06c-1.1-3.16,1.73-2.16,2.13-3.45,.59,1.75,2.4,.46,3.36,1.37-.17,.23-.35,.62-.49,.61-1.75-.16-3.41,.09-5,1.48Z"/><path class="cls-1" d="M463.07,394.79c.47,1.24,2.49,.3,2.55,1.25-.11,1.89-1.11,1.65-1.79,1.54-.91-.14-1.18,.85-1.96,.89-1.09-1.66,1.42-2.28,1.21-3.69Z"/><path class="cls-1" d="M465.44,413.5c-2.07-.62-3.94-1.08-5.94-1.3,1.46-.63,3-.74,4.07-1.66,1.71,.5,.52,2.29,1.87,2.95Z"/><path class="cls-1" d="M558.03,559.99c-.12,1.88,1.96,2.48,1.34,4.09-.9,.82-1.8,.04-2.46,.4-1.02-1.36,.19-1.87,.44-2.65-.59-.5-1.13-1.01,.68-1.84Z"/><path class="cls-1" d="M577.77,372.43c-2.84,.87-4.92-.66-7.85-1.32,3.24-.88,5.54-.44,7.85,1.32Z"/><path class="cls-1" d="M484.39,378.82c-2.05,.12-3.52,2.84-6.1,1.22,.75-.22,1.37-.4,2-.58l-.52-.64h4.62Z"/><path class="cls-1" d="M595.44,690.42v-1.67c1.31-.8,3.23,.05,3.91-1.6,1.19,.54,1.21,1.13,.95,1.85-.81,.71-1.87,.11-2.77,.38-.72,.21-1.37,.68-2.08,1.04Z"/><path class="cls-1" d="M577.46,695.34c0-.32-.04-.64,.01-.95,.04-.29,.18-.56,.34-1.05h3.64v1c.06,.87-.49,1-1.17,1-.94,0-1.88,0-2.82,0Z"/><path class="cls-1" d="M511.33,418.92q-1.58,1.59-4.62,1.37,1.58-1.59,4.62-1.37Z"/><path class="cls-1" d="M524.29,366.48h-8.29c1.63-1.19,2.87-.79,3.99-.8,1.11,0,2.27-.33,4.3,.8Z"/><path class="cls-1" d="M581.45,694.35v-1c1.18-.95,2.55-1.12,4-1v2h-4Z"/><path class="cls-1" d="M447.52,378.63c-.21,2.24-5.69,5.79-7.93,6,.21-2.24,5.69-5.79,7.93-6Z"/><path class="cls-1" d="M604.43,392.63c-1.93,.31-3.45-.66-5-1.56v-1.43c1.59,1.12,3.76,1.28,5,3Z"/><path class="cls-1" d="M602.43,406.62h-1c1.27-1.4,.89-3.27,1.09-4.87,.62-.06,.94-.1,1.26-.13-.24,2.46-.55,3.62-1.35,5Z"/><path class="cls-1" d="M524.67,365.82h5.65c-1.82,1.24-3.74,.63-5.65,0Z"/><path class="cls-1" d="M477.52,693.56c1,.03,1.09-1.54,2.72-.95,.06,.16,.34,.99,.57,1.67-.72,.2-2.07,.35-3.28-.72Z"/><path class="cls-1" d="M504.02,569.46c-1.02-.75-.14-1.77-.6-2.52,1.51-.85,1.42,2.24,3.17,.24-.72,1.58-1.3,2.41-2.57,2.28Z"/><path class="cls-1" d="M554.48,572.46h2.86c.05,.72,.08,1.16,.11,1.54-.89,.75-1.78,.49-2.97,.17v-1.71Z"/><path class="cls-1" d="M533.35,541.08c-.73-1.39-1.13-2.17-1.86-3.54,0-.02,.97-.26,1.52-1.16,.84,1.4,.4,2.67,.33,4.7Z"/><path class="cls-1" d="M520.89,537.58h1.24c.56,.97,.56,1.86,0,2.83h-1.24c-.56-.97-.56-1.86,0-2.83Z"/><path class="cls-1" d="M534.67,537.58h1.44c.58,.95,.54,1.83-.03,2.9-2.56,.08-1.33-1.66-1.42-2.9Z"/><path class="cls-1" d="M582.45,415.47v-1.32c.71-.96,1.69-.43,2.57-.48,.56,.51,.57,1.07,.13,1.8h-2.7Z"/><path class="cls-1" d="M621.41,408.61v1h-2c-.62,.11-.9-.26-.98-.77-.04-.29,.1-.6,.16-.92,.88-.59,1.88-.19,2.82-.31v1Z"/><path class="cls-1" d="M525.78,667.37c-.08-1.71,3.17-6.57,5.39-7.13,.08,1.71-3.17,6.57-5.39,7.13Z"/><path class="cls-1" d="M605.43,410.61c.03-.69-.31-1.02-1-1-.06-.87,.49-1,1.17-1,.94,0,1.88,0,2.82,0-.31,1.7-2.24,.97-3,2Z"/><path class="cls-1" d="M530.27,536.22v4.31c-1.4-.56-.05-2.42-1.92-2.39,.74-.74,1.19-1.19,1.92-1.92Z"/><path class="cls-1" d="M445.77,404.94c.67,1.04,3.14-.06,2.81,2.14q-2.17-.59-2.81-2.14Z"/><path class="cls-1" d="M584.45,403.62c.15-1.02-1.64-1.29-.96-2.54,.46-.54,1.02-.61,1.67-.26,.56,.88,.18,1.87,.29,2.8h-1Z"/><path class="cls-1" d="M488.51,495.67c.06-2.64-.32-4.34,2.3-5.11-.74,1.65-1.31,2.91-2.3,5.11Z"/><path class="cls-1" d="M590.95,403.62c-.34,0-.66,0-.99,0-.6-.44-.66-1.01-.39-1.61,.34-.61,.89-.32,1.34-.4,.76,.66,.74,1.33,.03,2Z"/><path class="cls-1" d="M519.42,539.5v1.51c-.42,.68-.96,.41-1.5,.49-.74-1.27-.72-2.09,1.5-2Z"/><path class="cls-1" d="M622.37,383.6c.64,.05,1.24,.1,1.9,.15,.05,.6,.09,1.03,.12,1.41-.55,.61-1.1,.61-1.88,.16-.04-.49-.08-1.08-.13-1.72Z"/><path class="cls-1" d="M508.44,574.54v2.54c-.96,.56-1.84,.54-2.84,0,.62-.87,1.99-.61,2.84-2.54Z"/><path class="cls-1" d="M504.51,574.03c.92-.52,1.75-1,2.61-1.49,.49,.4,.52,.96,.24,1.59-.9,.5-1.78,.5-2.85-.1Z"/><path class="cls-1" d="M583.41,408.65c.05-.64,.1-1.24,.15-1.9,.6-.05,1.03-.09,1.41-.12,.61,.55,.61,1.1,.16,1.88-.49,.04-1.08,.08-1.72,.13Z"/><path class="cls-1" d="M584.2,370.77h3.84c.45,.35,.38,.79,0,.76-1.23-.1-2.75,.84-3.83-.76Z"/><path class="cls-1" d="M613.42,412.61c.03-.69-.31-1.02-1-1,.59-1.87,1.83-.8,2.97-.75-.54,.88-1,1.61-1.97,1.75Z"/><path class="cls-1" d="M589.81,408.78c-.84-1.96,.55-2.34,1.16-3.19,1.33,1.61-.38,2.13-1.16,3.19Z"/><path class="cls-1" d="M538.31,366.11c-1.18,.72-2.4,.66-3.78,.3,1.23-1.45,2.55-.51,3.78-.3Z"/><path class="cls-1" d="M580.79,411.49c-.9,1.63-2.6,.57-2.68,2.15-.78-.46-.61-.97-.65-1.45,.8-1.16,2.02-.31,3.33-.7Z"/><path class="cls-1" d="M593.26,372.11c-1.2,.71-2.42,.69-4.11,.16,1.59-1.01,2.86-.55,4.11-.16Z"/><path class="cls-1" d="M584.45,403.62h1c1.23,.01,.96,.86,.96,1.53-.55,.66-1.12,.51-1.96,.22v-1.75Z"/><path class="cls-1" d="M488.39,393.51h-2.81q1.66-.93,2.81,0Z"/><path class="cls-1" d="M527,539.54c-.79-1.04-.79-2.04,0-3.09,.79,1.04,.79,2.04,0,3.09Z"/><path class="cls-1" d="M525.81,539.33c-1.03,.08-1.45,.11-1.85,.14-.72-.74-.64-1.38,.08-1.99,.48,.5,.95,.99,1.77,1.85Z"/><path class="cls-1" d="M514.8,542.08c.31-.49,.69-1.11,1.32-2.11q.19,2.42-1.32,2.11Z"/><path class="cls-1" d="M485.02,389.51c-1.41,1.77-2.42,.75-3.9,1.32,1.29-1.74,2.46-.97,3.9-1.32Z"/><path class="cls-1" d="M484.54,389.63c.47-1.93,2.01-.62,3-1-.47,1.93-2.01,.62-3,1Z"/><path class="cls-1" d="M606.82,385.72h1.22c.58,.61,.54,1.16-.22,2.16-.36-.77-.67-1.45-1-2.16Z"/><path class="cls-1" d="M476.6,374.15c-1.04,.79-2.04,.79-3.09,0,1.04-.79,2.04-.79,3.09,0Z"/><path class="cls-1" d="M451.61,460.61c0-.92-.56-2.88-.56-3.81,1.07,.42,1.61,.47,1.89,1.44,.05,.52-.64,1.51-1.33,2.37Z"/><path class="cls-1" d="M569.6,371.15c-1.19,.67-2.07,.67-3.26,0,1.1-.64,1.98-.73,3.26,0Z"/><path class="cls-1" d="M554.68,367.36c.88-.86,1.76-.91,2.8-.27-.92,1.14-1.95,.11-2.8,.27Z"/><path class="cls-1" d="M505.6,554.09v-1.22c.61-.58,1.16-.54,2.16,.22-.77,.36-1.45,.67-2.16,1Z"/><path class="cls-1" d="M503.39,556c1.17-.72,2.05-.67,3.26-.05-1.09,.69-1.98,.72-3.26,.05Z"/><path class="cls-1" d="M457.61,415.16c.47-.75,1-.48,1.44-.55,.59,.45,.65,1.01,.18,2.12-.62-.6-1.13-1.1-1.61-1.57Z"/><path class="cls-1" d="M502.39,564.99c1.17-.72,2.05-.67,3.26-.05-1.09,.69-1.98,.72-3.26,.05Z"/><path class="cls-1" d="M507.57,570.96c-1.04,.79-2.04,.79-3.09,0,1.04-.79,2.04-.79,3.09,0Z"/><path class="cls-1" d="M476.42,412.11c1.19-.67,2.07-.67,3.26,0-1.1,.64-1.98,.73-3.26,0Z"/><path class="cls-1" d="M481.55,411.61c-.28-.11-.56-.22-1.18-.47,1.14-.66,2.03-.75,3.01-.2,.05,.62-.34,.71-.83,.67h-1Z"/><path class="cls-1" d="M615.43,383.67c-.6-.04-1.19-.09-1.68-.12-.45-.74-.49-1.29,.04-1.79,.78,.43,1.48,.91,1.64,1.91Z"/><path class="cls-1" d="M587.53,410.87v-.86c.61-.58,1.16-.54,2.12,.19-.84,.27-1.59,.51-2.12,.67Z"/><path class="cls-1" d="M581.45,409.61c.09-1.49,1.24-.85,2-1v2.01c-.86-.44-1.43-.73-2-1.01Z"/><path class="cls-1" d="M451.53,409.11c1.04-.79,2.04-.79,3.09,0-1.04,.79-2.04,.79-3.09,0Z"/><path class="cls-1" d="M608.1,408.7c.73-1.22,1.38-1.12,1.99-1.07,.43,.03,.85,.18,1.38,.3-.91,1.23-2.08,.46-3.37,.78Z"/><path class="cls-1" d="M596.02,397.71h1.04c.56,.63,.54,1.18-.2,2.08-.31-.77-.59-1.48-.83-2.08Z"/><path class="cls-1" d="M585.92,399.01c-.45-.9-.78-1.56-1.08-2.15,1.02-.37,2.19-.7,1.08,2.15Z"/><path class="cls-1" d="M613.61,397.35c-1.55-1.67-1.45-2.65-.76-3.69,1.12,.83,.34,1.99,.76,3.69Z"/><path class="cls-1" d="M469.01,375.81c1.14-1.34,1.77-1.43,2.46-.76-.39,1.05-1.28,.42-2.46,.76Z"/><path class="cls-1" d="M596.36,374.15c.82-.65,1.37-.69,1.96-.15-.41,1.08-1.05,.79-1.96,.15Z"/><path class="cls-1" d="M603.44,685.85c-.68,.73-1.34,.73-2.02,0,.68-.73,1.34-.73,2.02,0Z"/><path class="cls-1" d="M615.42,383.64c.76,.15,1.91-.5,2,1-.76-.15-1.91,.5-2-1Z"/><path class="cls-1" d="M620.01,401.69c.62,.69,.66,1.68-.15,1.84-1.02,.21-.15-.89-.42-1.33-.02-.04,.36-.33,.57-.51Z"/><path class="cls-1" d="M555.98,577.47c-.73-.68-.73-1.34,0-2.02,.73,.68,.73,1.34,0,2.02Z"/><path class="cls-1" d="M441.42,401.08c1.34,1.14,1.43,1.77,.76,2.46-1.05-.39-.42-1.28-.76-2.46Z"/><path class="cls-1" d="M581.45,409.61c-.15,.76,.5,1.91-1,2,.15-.76-.5-1.91,1-2Z"/><path class="cls-1" d="M487.61,396.1c-.77,.71-1.32,.68-1.94,.18,.38-1.1,1.02-.8,1.94-.18Z"/><path class="cls-1" d="M604.27,392.09c1.34,1.14,1.43,1.77,.76,2.46-1.05-.39-.42-1.28-.76-2.46Z"/><path class="cls-1" d="M524.51,537.49c-.09-.48,.13-.78,.59-.89,.08-.02,.31,.22,.29,.29-.1,.46-.41,.68-.88,.59Z"/><path class="cls-1" d="M552.48,546.98c.33-.47,.66-.47,.99,0-.33,.47-.66,.47-.99,0Z"/><path class="cls-1" d="M550.49,548.49c.48-.09,.78,.13,.88,.59,.02,.08-.22,.31-.29,.29-.46-.1-.68-.41-.59-.89Z"/><path class="cls-1" d="M553.48,576.45c-.09-.48,.13-.78,.59-.89,.08-.02,.31,.22,.29,.29-.1,.46-.41,.68-.89,.59Z"/><path class="cls-1" d="M456.57,410.61c-.48,.09-.78-.13-.89-.59-.02-.08,.22-.31,.29-.29,.46,.1,.68,.41,.59,.89Z"/><path class="cls-1" d="M557.47,555.47c-.48,.09-.78-.13-.89-.59-.02-.08,.22-.31,.29-.29,.46,.1,.68,.41,.59,.89Z"/><path class="cls-1" d="M592.45,690.34c-.09-.48,.13-.78,.59-.88,.08-.02,.31,.22,.29,.29-.1,.46-.41,.68-.89,.59Z"/><path class="cls-1" d="M456.57,410.62c.48-.09,.78,.13,.89,.59,.02,.08-.22,.31-.29,.29-.46-.1-.68-.41-.59-.89Z"/><path class="cls-1" d="M612.92,407.61c-.47-.32-.47-.66,0-.98,.47,.32,.47,.66,0,.98Z"/><path class="cls-1" d="M481.55,411.61h1c.04,.49-.06,.93-.66,.79-.16-.04-.23-.52-.34-.79Z"/><path class="cls-1" d="M488.04,371.64c-.47-.32-.47-.66,0-.98,.47,.32,.47,.66,0,.98Z"/><path class="cls-1" d="M557.48,555.48c.48-.09,.78,.13,.89,.59,.02,.08-.22,.31-.29,.29-.46-.1-.68-.41-.59-.89Z"/><path class="cls-1" d="M595.43,690.35c.09,.48-.13,.78-.59,.89-.08,.02-.31-.22-.29-.29,.1-.46,.41-.68,.89-.59Z"/><path class="cls-1" d="M581.15,649.53c1.7-1.15,2.66-2.86,3.4-4.35,.1-1.64-.42-1.88-1.44-3.32-1.09-.83-2.27-.99-3.65-1.11-2.8,.38-7.17,2.57-7.34,.06,3.5-1.5,8.2-2.54,11.93-2.39,.6,.73,1.33,1.61,2.38,2.89-.1,2.39,.63,5.47-1.51,8.09-.82,0-2.95,.14-3.77,.14Z"/><path class="cls-1" d="M521.31,371.47h-7.64c2.53-1.11,5.12-.63,7.64,0Z"/><path class="cls-1" d="M547.48,646.39c0,2.92,0,5.83,0,8.75,0,7.38-.07,3.31-1,3.24-.5-4.01-.41-3.24-.41-3.33v-2.64c0-.84-.49-1.35,.16-2.68,.76-1.57,.17-1.85,1.25-3.34Z"/><path class="cls-1" d="M581,642.92c.47,1.28,.45,2.01,.45,3.28,0,.68-.11,1.26-1,1.19-.13-3.85-.15-3.87-4-4-.06-.89-.48-.97,1.19-1,1.27-.02,2.12-.11,3.35,.52Z"/><path class="cls-1" d="M579.45,648.39c-.74,2.13-2.42,.5-4,1.11,0-1.91-.03-3.64,.02-5.36,.02-.48,.43-1.73,1.04-1.62,0,1.58-.06,4.03-.06,5.87h3Z"/><path class="cls-1" d="M581.22,646.84c.03,.69-2.05,2.57-2.74,2.55-.03-.69,2.05-2.57,2.74-2.55Z"/></g><path class="cls-1" d="M497.13,654.14l-3.24-2.73-2.99-1.53-3.86-1.68-.91-.51,.15-1.31h1.17l3.1,1.68,3.5,1.06,1.68-.51,1.53-1.57v-2.08s-4.01-6.96-5.03-7.62l-1.42,.26-1.17,1.79s-2.66-.98-3.1-.98-4.37-1.06-4.37-1.06l-3.9,.77-2.95,2.22-.91,3.72,.77,3.24,1.57,3.24,3.35,2.95,2.33,1.82,2.04,1.17,2.08,1.42,.51,.87-1.68,.66-2.19-.66-2.44-3.46-1.42-1.42-2.84,1.17-2.99,1.17,1.02,2.19,.8,2.84,2.55,3.59,2.69-.4,1.87,1.43,3.1,1.31h3.72l4.26-.51,2.59-1.75,1.82-3.31v-4.12l-.77-3.35Zm-1.06,7.22l-.84,2.55-2.22,.98-3.9,.47h-3.24l-2.77-1.17-.15-.04-.11-.04-2.11-1.44-2.1,.42-1.65-2.62-.69-2.55-.04-.18-.07-.15-.22-.4,1.2-.47,1.71-.69,.44,.44,2.37,3.35,.36,.51,.62,.18,2.19,.66,.58,.18,.58-.22,1.68-.66,1-.98-.05-1.61-.55-.91-.18-.36-.36-.26-2.19-1.49-1.97-1.09-2.11-1.64-3.1-2.73-1.28-2.73-.66-2.59,.66-2.7,2.11-1.57,3.06-.58c3.13,.8,3.97,.95,4.3,.95,.36,.11,1.64,.55,2.62,.91,0,0,1.01,.62,1.35,.51s.8-1.24,.8-1.24l.55-.84c.91,1.24,2.44,3.68,3.72,5.94v.8l-.69,.69-.73,.22-2.77-.8-2.92-1.6-.44-.22h-3.24l-.18,1.64-.11,1.31-.15,1.17,1.06,.58,.87,.51,.11,.07,.07,.04,3.75,1.6,2.81,1.46,2.62,2.19,.58,2.59v3.64Z"/><path class="cls-1" d="M481.93,660.93l.75,.3,1.77,.69,.53,.18,.27,.1,.27-.11,.55-.23,1.53-.64,1.81-.76,.86-.77-.14-.94-.17-.35-.12-.24-.14-.33-.28-.4-.27-.73-.53-.73-2.12-1.68-1.43-1.03-2.3-1.49-2.21-2.15-1.52-2.38-1.09-3.02,.67-1.82,1.23-1.19,2.6-.56c2.69,.74,3.12,.55,3.49,.57,.41,.15,1.44,.53,2.25,.85l1.24,.5,.63,.26,.37-.61,.66-.17c.75,1.23,1.6,2.14,2.44,3.73v.19l-.25,.26-1.03-.4-1.62-1.26-1.26-.54-1.15-.58-1-.28s-2.36-.62-3.51,.58c-.93,.96,1.06,.82,1.06,.82l-.08,2.24-1.42,1.45-.04,.34-.07,.6,.49,.3,.95,.56,.86,.54,.13,.09,.07,.03,3.38,1.56,2.49,1.39,2.12,1.9,1.18,2.85-.19,3.29-.97,1.75-1.75,.83h-6.16l-2.38-1.08-.13-.05h-.06s-.13-.06-.13-.06h-.04s-2.08-1.19-2.08-1.19l-3.34,1.02-1.18-2.1-.5-2.32,1.7-.9,.3-.13,1.04-.45,2.34,3.15"/></svg>