<?xml version="1.0" encoding="UTF-8"?><svg id="Layer_12" xmlns="http://www.w3.org/2000/svg" viewBox="0 0 1061 1061"><defs><style>.cls-1{fill:#518824;}</style></defs><path class="cls-1" d="M456.52,434.47c5.7,2.27,10.4,3.2,16.98,4.72,4.91,1.14,9.78,2.05,14.95,2.79,.49,.07,1.1,.42,1.49,.5,3.47,.71,5.06,.66,7.58,.99,2.52,.33,5.07,.22,7.62,.35,2.22,.12,4.22,.32,6.69,.41,.61,.02,1.67,.08,2.77,.05-.01-.01,.32-.08,.6,0,.6,.18,1.1,0,1.73,.02,1.66,.04,3.32,.01,4.99,.01h4.99c1.5,0,2.99,0,4.49,0,1.66,0,3.34,.11,4.86,0,2.12-.15,2.34-.11,4.32-.21,.42-.02,1.21-.11,1.45-.14,2.06-.24,2.59-.11,3.94-.18,1.56-.09,3.19-.36,4.8-.46,5.68-.34,11.39-.45,17.02-1.14,1.71-.21,3.5-.33,5.31-.67,1.82-.34,3.63-.38,5.48-.61,2.09-.25,4.46-.66,6.58-1.09,2.33-.47,4.43-1.04,6.76-1.52,.89-.18,1.6-.46,2.28-.61,3.22-.72,6.02-2.07,9.07-2.98,2.76-.82,5.41-2.25,7.69-3.43,.82-.42,1.82-.51,2.9-1.35,.07-.05,10.32-4.68,10.2-4.42,.52-1.18-.24-2.41-.24-2.41,0,0-16.84,7.08-17.88,7.64-6.67,3.59-14.24,4.13-21.26,6.51-2.25,.29-4.62,.74-7.05,1.03-2.54,.3-5.04,.34-7.6,.88-3.29,.23-6.41,.3-10.1,.86-7.48,.28-14.62,1.34-21.99,1.29-3.16-.02-6.32,0-9.48,0-5.66,0-11.31-.03-16.97,0-5.54,.03-11.09-.52-16.56-1.01-.49-.04-1.12,0-1.46-.03-2.82-.58-4.16-.58-6.5-1.25-2.21-.64-4.49-1.25-6.78-1.7-3.55-.69-7.12-1.13-10.67-1.94-7.72-1.77-15.3-3.86-22.38-7.45-1.15-.59-1.99-1.05-3.06-1.5-1.23-.61-.98-.45-1.66-.83-.37-.19,.13,.09-.73-.4-.84-.42-1.66-.97-2.5-1.4-.33-3.33-.66-6.34-1.04-10.15,.06-.07,.09-1.84,.8-2.63,.53-1.61,2.9,1.13,3.78,1.76,3.33,2.36,7.25,3.48,10.77,5.43,3.33,1.84,7.16,2.76,10.76,4.13,.43,.16,.75,.62,.95,.8,5.35,.5,10.3,1.83,15.84,4.09,1.29,.07,3.84-.5,5.41,.48,1.96,1.22,4.45-.63,5.88,1.58,.05,.08,.32,.05,.48,.02,4.11-.73,8,1.45,12.07,.98,5.27-.62,10.33,1.25,15.57,1.06,5.32-.19,10.65,.06,15.98-.09,2.53-.07,5.05-.64,7.58-.95,2.53-.31,5.01,.04,7.64-.79,2.38-.74,5.5-1.02,8.29,.98,.4-.36,.83-1.08,1.32-1.12,1.65-.16,3.33,.05,4.97-.12,1.54-.16,3.05-.7,4.59-.95,4.38-.7,8.77-1.35,13.15-2.01,1.96-2.28,5.23,.33,7.2-1.92,4.88,.09,8.85-2.76,13.3-4.03,4.33-1.24,8.38-3.09,12.39-5.07,.85-.42,1.54-1.17,2.43-1.86,1.26,0,2.32-2.02,3.91-2.02,0,2.22-.21,12.01,.44,12.27v117.12c-.53,.5-.99,.94-1.44,1.37-.28-.28-.52-.52-.78-.78-3.6,2.8-6.9,6.19-10.88,8.25-4.36,2.25-7.9,6.06-13.24,6.7-2.25,.27-4.29,2.19-6.72,2.98-3.4,1.11-6.91,1.74-10.31,2.79-4.79,1.48-9.87,1.72-14.74,2.99-1.69,.44-3.16,.51-5.39,.51,.16-4.04-1.08-7.35-2.3-10.64-1.92-5.18-5.15-9.35-8.98-13.16-.64-.64-1.55-1.27-2.4-1.37-1.72-.2-2.8-1.35-4.18-2.05-2.29-1.18-4.99-1.8-7.58-2.12-2.79-.35-5.66-.25-8.47-.02-1.82,.15-3.67,.74-5.37,1.45-1.7,.72-3.3,1.74-4.82,2.8-1.27,.89-3.51,.42-3.81,2.68-2.73-.14-2.56,2.65-3.66,3.99-1.26,1.54-3.05,2.72-3.79,4.78-1.19,3.33-2.7,6.54-3.91,9.86-.32,.87-.86,1.91-.86,3.36-3.08-.38-4.93,.07-8.19-1.01-4.59-.09-9.1-1.41-13.62-2.17-4.97-.83-9.72-2.94-14.55-4.56-2.19-.73-4.4-1.46-6.45-2.49-4.61-2.3-8.97-5.03-13.17-8.03-.99-.71-2.15-2.25-4.14-.58v-17.63c0-2.83,.27-5.69-.08-8.48-.3-2.4,1.23-4.32,1.08-6.59-.33-5.02-.79-10.04-.96-15.07-.17-4.99-.86-10.17-.86-15.16s.28-8.72,0-15.47,.1-13.53-.12-20.39c-.22-6.96-.05-13.94-.05-21.09"/><path class="cls-1" d="M442.74,665.8v-5.79c1.09,.68,1.92,1.03,2.55,1.6,2.23,2.05,4.04,4.65,7.16,5,.16,.75,.26,1.2,.36,1.62,.93,.11,1.72,.2,2.58,.3,.1,.48,.2,.94,.3,1.42,.24,.13,.5,.36,.79,.39,1.25,.14,2.35,.21,3.64,.89,6,3.18,12.35,5.53,18.98,7.17,3.04,.76,6.1,1.35,9.17,1.94,2.32,.44,5.05,.19,6.89,1.37,2.27,1.45,4.95-.62,6.93,1.53,.46,.5,1.91,.11,2.9,.11,3.66,0,7.32-.08,10.98,.04,1.71,.06,3.46-.58,5.17,.85,.78,.65,2.65,.4,3.88,.06,4.27-1.18,4.24-1.2,9.17,.04,.47,.12,1.14,.22,1.47-.02,2.38-1.71,5.06-.74,7.59-.95,4.68-.39,9.48-.17,14.03-1.15,5.3-1.14,10.85-1.4,15.84-3.86,4.32,1,7.91-2.24,12.15-2.1,1.23,.04,2.5-1.1,4.13-1.88h3.69c.48-.53,.99-1.6,1.61-1.67,4.66-.54,7.46-5.25,12.43-5.42-.02-2.81,2.77-3.23,4.46-4.32,1.6-1.02,2.88-3.27,5.37-2.62,1.48-1.45,2.15-3.86,5.09-3.99,.92,2.09-.03,4.39,.6,6.71-1.14,.19-2.06,.35-2.93,.49-1.27,1.69-2.5,3.33-3.66,4.87h-2.39c-.11,.49-.21,.94-.26,1.18-1.77,1.18-3.44,2.31-5.14,3.4-.78,.5-1.66,1.34-2.43,1.27-3.3-.3-5.56,1.91-8.25,3.07-3.1,1.34-6.19,2.73-9.33,3.98-3.01,1.19-6.2,1.85-9.28,2.87-2.37,.79-4.99,.9-7.52,1.11-2.84,.24-5.53,1.03-8.25,1.78-.45,.12-.93,.25-1.4,.23-4.72-.11-9.3,1.73-14.06,1.01-10.62,2.16-21.35,.74-32.02,.87-4.99,.06-9.99-1.23-15.05-.87-1.86-1.35-4-1.04-6.07-.98-1.95,.06-3.72-.81-5.54-1.19-6.97-1.43-13.93-2.92-20.7-5.32-4.21-1.49-8.31-3.28-12.47-4.85-5.29-2-9.64-5.7-13.16-10.22Z"/><path class="cls-1" d="M506.8,603.37c3.25,.33,6.43-.71,9.6,1.51-.28,3.75,2.99,7.12,2.77,11.49,1.05-3.94,2.1-7.88,3.15-11.81h8.96c.4,4.73,.87,9.53,1.2,14.33,.2,2.88-.42,5.84,1.56,8.94-.96,.3-1.8,.57-2.65,.83,.22,.24,.44,.48,.67,.71h-4.22c-.68-1.04-1.45-2.21-2.41-3.67v-5.06c-.19-.03-.38-.05-.57-.08-.54,2.77-1.09,5.53-1.69,8.59h-7.82c-.7-2.48-1.44-5.12-2.21-7.89-1.66,2.18-1.72,4.57-1.58,7.03h-8.1c1.92-8.26,1.52-16.72,3.35-24.94Z"/><path class="cls-1" d="M484.33,623.92c-.76-1.36-2.11-3.8-3.79-6.81,0-1.24,0-3.23,0-5.22,.02-3.67,1.31-7.08,4.04-9.67,.92-.88,2.32-1.43,3.59-1.72,1.25-.29,2.62-.06,3.82-.06,1.27,.91,2.45,1.69,3.58,2.55,1.13,.86,1.86,2.28,3.76,2.94,.31,1.27,.9,3.05,1.15,4.89,.26,1.87-.39,3.9,1.04,5.56-1.62,3.66-.65,8.57-5.24,10.77-1.18,.33-2.36,.66-3.85,1.08-2.1-1.02-5.17-.75-8.1-4.3Zm4.56-3.75h4.36c2.4-4.46,1.43-8.67-.9-12.74h-3.34c-.78,.8-1.58,1.63-2.37,2.45-.7,3.58,.59,6.81,2.25,10.28Z"/><path class="cls-1" d="M579.95,623.24c-.9-.68-1.89-1.43-3.43-2.59-.17-.45-.94-1.57-1-2.74-.17-3.31-.71-6.8,.1-9.91,1.09-4.19,1.71-9.2,6.8-10.95,1.93-.66,4.12-.6,6.38-.9,1.99,2.19,3.91,4.31,5.5,6.06,.43,5.29-.25,9.75-1.71,14.24-.62,1.92-1.96,2.89-3.11,3.81-1.05,.84-1.95,1.45-2.22,2.96h-7.32Zm4.18-6.65c3.35-1.4,3.59-4.07,4.19-6.22,.63-2.24,.35-4.77-1.28-6.83h-3.19c-3.59,3.39-2.01,7.62-2.49,11.7,1.07,.52,2.03,.99,2.77,1.35Z"/><path class="cls-1" d="M552.38,603.43c1.14,8.44,5.15,15.69,6.23,23.88h-5.61c-1.14-1.16-3.18-2.02-2.42-4.52-1.69-.34-3.19-.65-5.01-1.01-2.47,1.51-1.45,5.27-3.51,7.93-1.86-.47-3.65-.93-5.88-1.5,.48-1.86,.78-3.53,1.34-5.1,1.32-3.67,1.94-7.5,2.97-11.24,.37-1.34,.58-2.75,1.12-4.03,1.2-2.84,3.22-4.61,6.54-4.43,1.31,.07,2.63,.01,4.23,.01Zm-5.24,7.15h-.66c0,.94,.13,1.9-.03,2.82-.18,1.03-.7,1.99-.92,3.01-.07,.31,.35,.72,.71,1.42,.97-.84,1.73-1.5,2.49-2.15-.6-1.92-1.09-3.51-1.58-5.09Z"/><path class="cls-1" d="M573.06,608.33c-.79,.08-1.57,.16-2.5,.26v16.18l-2.64,2.64h-5.28v-17.81h-5.02c-.29-2.71-.07-5.28-.16-7.83,5.32-.88,10.43-1.72,15.43-2.55,1.21,1.6-.31,3.69,1.57,4.71-.47,1.46-.93,2.93-1.4,4.39Z"/><path class="cls-1" d="M469.98,605.77c-2.03-1.06-3.68-1.91-5.29-2.75v-6.47c5.55-.54,10.41,.77,14.77,3.99v4.94c-1.09,.42-2.24,.85-3.82,1.45v16.5c-2.13-.49-3.91-.9-5.81-1.34-1.2-5.12-2.38-10.42,.15-16.31Z"/><path class="cls-1" d="M471.18,448.62c1.63,.15,3.72-.82,4.95,.94-.07,5.5-4.74,6.54-8.09,8.88h-4.87c1.14-1.53,1.95-2.75,2.9-3.85,.97-1.12,2.14-2.07,3.12-3.19,.71-.81,1.26-1.76,1.99-2.79Z"/><path class="cls-1" d="M560.55,481.15v3.95c-.67,.49-1.47,1.07-2.05,1.49v2.18c-1.3,1.6-2.5,3.07-3.83,4.71-.08-1.5-.16-3.03-.21-4.02,1.89-3.65,3.52-6.8,5.06-9.79h3.88c-1.67,.87-2.48,1.29-2.86,1.48Z"/><path class="cls-1" d="M529.02,496.11c2.62-4.78,5.05-9.2,7.45-13.58,1.17,.55,1.96,.93,3.17,1.5-.65,.29-1.06,.47-1.93,.86-1.6,3.97-3.86,8.1-7.08,11.62-.1,.11-.57-.13-1.62-.4Z"/><path class="cls-1" d="M480.76,477.61c-1.7,5.2-3.82,9.74-7.01,14.8-.32-4.75,1.78-7.97,2.98-11.34,.46-1.3,.82-3.7,4.04-3.45Z"/><path class="cls-1" d="M454.26,489.33c2.3-2.04,1.08-4.33,1.27-6.37,.2-2.1,.04-4.23,.83-6.36,.11,1.85,.22,3.71,.34,5.75h2.67c.1,1.59,.18,3.01,.29,4.77-.92,.66-1.98,1.41-3.37,2.41-.2-.02-.97-.1-2.03-.2Z"/><path class="cls-1" d="M582.81,484.68c-1.83,1.83-3.1,3.15-4.43,4.41-1.18,1.11-1.47,3.13-3.69,3.15v-3.43c1.97-1.79,3.76-4.7,8.12-4.13Z"/><path class="cls-1" d="M578.45,479.55h3v-2h2.89v2.6c-.81,.81-4.11,.48-5.89-.6Z"/><path class="cls-1" d="M459.59,477.75c.89-.34,1.73-.66,2.68-1.03,1.22,2.45-.97,4.42-1.33,6.7-.47-1.96-.93-3.91-1.35-5.67Z"/><path class="cls-1" d="M547.53,490.63c-1.05-.14-1.36-.18-1.68-.22-.96-1.55-.25-2.68,1.4-4.07,.1,1.55,.18,2.75,.28,4.29Z"/><path class="cls-1" d="M531.36,502.35h-5.72c-.04-.54-.07-.98-.1-1.42,1.97,.3,3.86,.59,5.76,.88,.02,.18,.04,.36,.06,.54Z"/><path class="cls-1" d="M489.7,489.48c.74,.12,1.3,.22,2.15,.36-.68,1.39-1.23,2.51-2.15,4.38v-4.74Z"/><path class="cls-1" d="M580.59,474.58v-2.88c.56-.05,1-.09,1.65-.15v2.9c-.58,.05-1.18,.1-1.65,.13Z"/><path class="cls-1" d="M580.45,474.55c.33,1,.67,2,1,3-.98-.3-1.96-.61-3.59-1.11,1.26-.92,1.93-1.4,2.59-1.88Z"/><path class="cls-1" d="M453.82,479.55v-4h.5v4h-.5Z"/><path class="cls-1" d="M607.59,478.37v-3.65c.21-.01,.41-.02,.62-.04l.25,3.67-.87,.02Z"/><path class="cls-1" d="M570.71,493.53v-4h.5v4h-.5Z"/><path class="cls-1" d="M597.61,484.35v-2.65c.17-.01,.35-.03,.52-.04,.12,.89,.24,1.78,.36,2.67-.29,0-.59,.01-.88,.02Z"/><path class="cls-1" d="M504.66,483.46h-1.64c.35-.53,.76-1.14,1.28-1.94,.12,.63,.2,1.07,.36,1.94Z"/><path class="cls-1" d="M504.52,480.3h-3v-.5h3v.5Z"/><path class="cls-1" d="M611.17,478.55v3h-.5v-3h.5Z"/><path class="cls-1" d="M576.62,476.38v-2.65c.17-.02,.35-.03,.52-.05,.12,.88,.25,1.76,.37,2.65-.3,.02-.6,.04-.89,.05Z"/><path class="cls-1" d="M534.67,479.71h2.65c.02,.17,.03,.35,.05,.52-.88,.12-1.76,.25-2.65,.37-.02-.3-.04-.6-.05-.89Z"/><path class="cls-1" d="M596.61,488.38v-2.65l.51-.05,.38,2.62c-.29,.03-.59,.06-.88,.09Z"/><path class="cls-1" d="M470.73,491.38v-2.65l.51-.05c.13,.87,.25,1.75,.38,2.62l-.88,.09Z"/><path class="cls-1" d="M523.24,490.29c.16,.84,.24,1.28,.37,1.94-.61,.13-1.15,.24-2.84,.6,1.22-1.26,1.71-1.76,2.47-2.54Z"/><path class="cls-1" d="M550.65,496.34v-2.65l.52-.04c.12,.89,.24,1.78,.36,2.67-.29,0-.59,.01-.88,.02Z"/><path class="cls-1" d="M487.36,495.36h-1.66c-.02-.16-.04-.33-.07-.49,.56-.12,1.11-.24,1.67-.36,.02,.29,.04,.57,.06,.86Z"/><path class="cls-1" d="M516.36,515.34h-1.66c-.03-.16-.05-.32-.08-.48,.54-.13,1.08-.26,1.63-.39,.04,.29,.07,.58,.11,.86Z"/><path class="cls-1" d="M599.26,478.71v1.66c-.16,.03-.32,.05-.48,.08-.13-.54-.26-1.08-.39-1.63,.29-.04,.58-.07,.86-.11Z"/><path class="cls-1" d="M458.79,477.58c-.05-.64-.11-1.27-.16-1.91,.22-.03,.43-.06,.65-.09,.13,.65,.25,1.3,.38,1.95-.29,.01-.58,.03-.86,.04Z"/><path class="cls-1" d="M558.72,475.55v-2h.5v2h-.5Z"/><path class="cls-1" d="M460.74,459.41v-1.66c.16-.03,.32-.05,.48-.08,.13,.54,.26,1.08,.39,1.63-.29,.04-.58,.07-.86,.11Z"/><path class="cls-1" d="M550.65,492.38v-1.66c.16-.03,.32-.05,.48-.08,.13,.54,.26,1.08,.39,1.63-.29,.04-.58,.07-.86,.11Z"/><path class="cls-1" d="M489.21,494.53v1h-.33v-1h.33Z"/><path class="cls-1" d="M548.48,484.21h-1v-.33h1v.33Z"/><path class="cls-1" d="M578.36,479.65c-.27-.23-.54-.46-.82-.7,.11-.11,.21-.21,.32-.32,.23,.27,.46,.54,.7,.82-.07,.07-.13,.13-.2,.2Z"/><path class="cls-1" d="M462.67,455.66c-.23,.27-.46,.54-.7,.82l-.32-.32c.27-.23,.54-.46,.82-.7l.2,.2Z"/><path class="cls-1" d="M584.45,475.22h-1v-.33h1v.33Z"/><path class="cls-1" d="M462.46,455.48c.23-.27,.46-.54,.7-.82l.32,.32-.82,.7-.2-.2Z"/><path class="cls-1" d="M497.86,494.53v-1h.33v1h-.33Z"/><path class="cls-1" d="M517.69,521.54c2.1-.23,3.54,.19,3.8,2.24,.23,1.78-.52,2.32-3.85,2.75-.05-.94-.13-1.86-.12-2.78,0-.75,.11-1.51,.17-2.2Z"/><path class="cls-1" d="M578.29,521.42h-2.66v-3.83h2.66v3.83Z"/></svg>